<svg width="96" height="96" viewBox="0 0 96 96" fill="none" xmlns="http://www.w3.org/2000/svg">
<path d="M61.0489 33.6743C60.7578 33.6743 60.4631 33.5924 60.1999 33.4217C59.4833 32.9522 59.2823 31.9905 59.7514 31.2732C61.2478 28.984 62.0394 26.333 62.0394 23.6064C62.0394 20.8802 61.2476 18.2293 59.7514 15.9397C59.2823 15.2224 59.4833 14.2604 60.2014 13.7912C60.9191 13.3244 61.8805 13.5245 62.3484 14.2411C64.1768 17.0372 65.1431 20.2754 65.1431 23.6064C65.1431 26.9382 64.1768 30.1767 62.3484 32.9716C62.0513 33.4267 61.5544 33.6743 61.0489 33.6743Z" fill="#D6E4FF"/>
<path d="M67.744 38.0427C67.4529 38.0427 67.1584 37.9609 66.8954 37.7896C66.1788 37.3209 65.9774 36.3588 66.4468 35.6415C68.7964 32.0492 70.038 27.887 70.038 23.606C70.038 19.3244 68.7964 15.1628 66.4468 11.5708C65.9774 10.8537 66.1788 9.89219 66.8954 9.42294C67.6131 8.95503 68.5756 9.15491 69.0438 9.87222C71.7242 13.9703 73.1417 18.7194 73.1417 23.606C73.1417 28.4922 71.7244 33.2417 69.0438 37.3403C68.7468 37.7954 68.2495 38.0427 67.744 38.0427Z" fill="#D6E4FF"/>
<path d="M74.4382 42.4115C74.1475 42.4115 73.8528 42.3297 73.5895 42.1589C72.873 41.6894 72.672 40.7277 73.141 40.0104C76.3418 35.1142 78.0343 29.4417 78.0343 23.6065C78.0343 17.7714 76.3418 12.0993 73.141 7.20238C72.672 6.48526 72.873 5.52314 73.5911 5.0539C74.3088 4.58714 75.2713 4.78721 75.738 5.50375C79.2712 10.9068 81.1382 17.1666 81.1382 23.6065C81.1382 30.0467 79.2712 36.3065 75.738 41.7092C75.441 42.1644 74.9439 42.4115 74.4382 42.4115Z" fill="#D6E4FF"/>
<path d="M48.0009 32.11C43.3113 32.11 39.4971 28.2949 39.4971 23.6061C39.4971 18.9172 43.3113 15.1028 48.0009 15.1028C52.6894 15.1028 56.5037 18.9172 56.5037 23.6061C56.5037 28.2949 52.6894 32.11 48.0009 32.11ZM48.0009 18.2067C45.0232 18.2067 42.6011 20.6291 42.6011 23.6061C42.6011 26.5838 45.0232 29.0063 48.0009 29.0063C50.9775 29.0063 53.4 26.5838 53.4 23.6061C53.4 20.6291 50.9775 18.2067 48.0009 18.2067Z" fill="#D6E4FF"/>
<path d="M34.951 33.6742C34.4451 33.6742 33.9482 33.4267 33.6512 32.9714C31.8228 30.1765 30.8564 26.938 30.8564 23.6063C30.8564 20.2752 31.8228 17.037 33.6512 14.2409C34.1179 13.5232 35.0804 13.3231 35.7981 13.791C36.5162 14.2603 36.7172 15.2222 36.2482 15.9395C34.7519 18.2291 33.9605 20.88 33.9605 23.6063C33.9605 26.3328 34.7519 28.9838 36.2482 31.273C36.7172 31.9903 36.5162 32.952 35.7997 33.4215C35.5366 33.5922 35.2417 33.6742 34.951 33.6742Z" fill="#D6E4FF"/>
<path d="M28.2559 38.0428C27.7504 38.0428 27.2535 37.7957 26.9565 37.3404C24.2758 33.2405 22.8594 28.4915 22.8594 23.6061C22.8594 18.7207 24.2758 13.9715 26.9565 9.87233C27.4244 9.15464 28.3859 8.95323 29.1034 9.42248C29.8211 9.89173 30.0225 10.8531 29.5531 11.571C27.2047 15.1633 25.9632 19.3251 25.9632 23.6061C25.9632 27.8867 27.2045 32.0489 29.5531 35.6416C30.0225 36.3597 29.8211 37.321 29.1034 37.7901C28.8419 37.9608 28.547 38.0428 28.2559 38.0428Z" fill="#D6E4FF"/>
<path d="M21.5625 42.4111C21.057 42.4111 20.5597 42.164 20.2627 41.7087C16.7287 36.3074 14.8613 30.0469 14.8613 23.606C14.8613 17.1654 16.7287 10.9058 20.2627 5.5033C20.7294 4.7856 21.6923 4.58362 22.4112 5.05402C23.1277 5.52269 23.3291 6.48461 22.8597 7.20173C19.6579 12.0981 17.9654 17.7706 17.9654 23.6058C17.9654 29.4419 19.6579 35.1139 22.8597 40.0097C23.3291 40.727 23.1277 41.6884 22.4112 42.1574C22.1495 42.3291 21.8536 42.4111 21.5625 42.4111Z" fill="#D6E4FF"/>
<path d="M33.4226 91.2002C33.299 91.2002 33.1744 91.1853 33.0494 91.1545C32.2178 90.9495 31.7098 90.1081 31.9144 89.2762L46.4942 30.1863C46.6988 29.3536 47.5438 28.8463 48.3731 29.0518C49.205 29.2564 49.7127 30.0982 49.508 30.9297L34.9287 90.0196C34.7541 90.7268 34.1198 91.2002 33.4226 91.2002Z" fill="#D6E4FF"/>
<path d="M69.6662 91.1998H26.333C25.4757 91.1998 24.7812 90.5048 24.7812 89.6477C24.7812 88.7908 25.4757 88.0959 26.333 88.0959H69.6662C70.5235 88.0959 71.218 88.7908 71.218 89.6477C71.218 90.505 70.5235 91.1998 69.6662 91.1998Z" fill="#D6E4FF"/>
<path d="M62.5775 91.1997C61.8804 91.1997 61.246 90.7262 61.0715 90.0189L46.4937 30.929C46.2886 30.0974 46.7967 29.2559 47.6282 29.051C48.4625 28.8448 49.3028 29.3532 49.5075 30.1855L64.0857 89.2754C64.2904 90.1074 63.7827 90.9485 62.9508 91.1538C62.8262 91.1847 62.7 91.1997 62.5775 91.1997Z" fill="#D6E4FF"/>
<path d="M60.907 84.4178C60.4585 84.4178 60.0148 84.225 59.7082 83.8523L39.8512 59.7214C39.3055 59.0596 39.4015 58.0817 40.0633 57.5368C40.7255 56.9912 41.7026 57.0875 42.2467 57.749L62.1038 81.8795C62.6494 82.5417 62.5538 83.5196 61.8916 84.0645C61.6032 84.302 61.254 84.4178 60.907 84.4178Z" fill="#D6E4FF"/>
<path d="M35.0929 84.4178C34.746 84.4178 34.3969 84.302 34.1084 84.0645C33.4461 83.5196 33.3505 82.5417 33.8962 81.8795L53.7532 57.749C54.2962 57.0875 55.2748 56.9912 55.9366 57.5368C56.5989 58.0817 56.6945 59.0596 56.1488 59.7214L36.2918 83.8523C35.9852 84.2248 35.5414 84.4178 35.0929 84.4178Z" fill="#D6E4FF"/>
</svg>
