<svg width="96" height="96" viewBox="0 0 96 96" fill="none" xmlns="http://www.w3.org/2000/svg">
<path fill-rule="evenodd" clip-rule="evenodd" d="M90.5625 73.6875H5.4375C2.4375 73.6875 0 71.25 0 68.25V10.875C0 7.875 2.4375 5.4375 5.4375 5.4375H90.5625C93.5625 5.4375 96 7.875 96 10.875V68.25C96 71.25 93.5625 73.6875 90.5625 73.6875ZM5.4375 8.0625C3.9375 8.0625 2.625 9.375 2.625 10.875V68.25C2.625 69.75 3.9375 71.0625 5.4375 71.0625H90.5625C92.0625 71.0625 93.375 69.75 93.375 68.25V10.875C93.375 9.375 92.0625 8.0625 90.5625 8.0625H5.4375Z" fill="#D6E4FF"/>
<path fill-rule="evenodd" clip-rule="evenodd" d="M58.875 90.5625H37.125C36.75 90.5625 36.375 90.375 36.1875 90C35.8125 89.8125 35.8125 89.25 35.8125 88.875L39.9375 72C40.125 71.4375 40.6875 71.0625 41.25 71.0625H54.75C55.3125 71.0625 55.875 71.4375 56.0625 72L60.1875 88.875C60.1875 89.25 60.1875 89.8125 59.8125 90C59.625 90.375 59.25 90.5625 58.875 90.5625ZM38.8125 87.9375H57.1875L53.625 73.6875H42.375L38.8125 87.9375Z" fill="#D6E4FF"/>
<path fill-rule="evenodd" clip-rule="evenodd" d="M68.8125 90.5625H27.1875C26.4375 90.5625 25.875 90 25.875 89.25C25.875 88.5 26.4375 87.9375 27.1875 87.9375H68.8125C69.5625 87.9375 70.125 88.5 70.125 89.25C70.125 90 69.5625 90.5625 68.8125 90.5625Z" fill="#D6E4FF"/>
<path fill-rule="evenodd" clip-rule="evenodd" d="M94.6875 63.1875H1.3125C0.5625 63.1875 0 62.625 0 61.875C0 61.125 0.5625 60.5625 1.3125 60.5625H94.6875C95.4375 60.5625 96 61.125 96 61.875C96 62.625 95.4375 63.1875 94.6875 63.1875Z" fill="#D6E4FF"/>
<path fill-rule="evenodd" clip-rule="evenodd" d="M49.3125 68.4375H46.6875C45.9375 68.4375 45.375 67.875 45.375 67.125C45.375 66.375 45.9375 65.8125 46.6875 65.8125H49.3125C50.0625 65.8125 50.625 66.375 50.625 67.125C50.625 67.875 50.0625 68.4375 49.3125 68.4375Z" fill="#D6E4FF"/>
</svg>
