<svg width="96" height="96" viewBox="0 0 96 96" fill="none" xmlns="http://www.w3.org/2000/svg">
<path d="M63 15C63.7957 15 64.5587 15.3161 65.1213 15.8787C65.6839 16.4413 66 17.2044 66 18V78C66 78.7956 65.6839 79.5587 65.1213 80.1213C64.5587 80.6839 63.7957 81 63 81H33C32.2044 81 31.4413 80.6839 30.8787 80.1213C30.3161 79.5587 30 78.7956 30 78V18C30 17.2044 30.3161 16.4413 30.8787 15.8787C31.4413 15.3161 32.2044 15 33 15H63ZM63 12H33C31.4087 12 29.8826 12.6321 28.7574 13.7574C27.6321 14.8826 27 16.4087 27 18V78C27 79.5913 27.6321 81.1174 28.7574 82.2426C29.8826 83.3679 31.4087 84 33 84H63C64.5913 84 66.1174 83.3679 67.2426 82.2426C68.3679 81.1174 69 79.5913 69 78V18C69 16.4087 68.3679 14.8826 67.2426 13.7574C66.1174 12.6321 64.5913 12 63 12Z" fill="#D6E4FF"/>
<path d="M48 32.25C48.1483 32.25 48.2933 32.294 48.4167 32.3764C48.54 32.4588 48.6361 32.5759 48.6929 32.713C48.7497 32.85 48.7645 33.0008 48.7356 33.1463C48.7066 33.2918 48.6352 33.4254 48.5303 33.5303C48.4254 33.6352 48.2918 33.7067 48.1463 33.7356C48.0008 33.7645 47.85 33.7497 47.713 33.6929C47.5759 33.6361 47.4588 33.54 47.3764 33.4167C47.294 33.2933 47.25 33.1483 47.25 33C47.25 32.8011 47.329 32.6103 47.4697 32.4697C47.6103 32.329 47.8011 32.25 48 32.25ZM48 29.25C47.2583 29.25 46.5333 29.4699 45.9166 29.882C45.2999 30.294 44.8193 30.8797 44.5355 31.5649C44.2516 32.2502 44.1774 33.0042 44.3221 33.7316C44.4668 34.459 44.8239 35.1272 45.3484 35.6517C45.8728 36.1761 46.541 36.5333 47.2684 36.6779C47.9958 36.8226 48.7498 36.7484 49.4351 36.4645C50.1203 36.1807 50.706 35.7001 51.118 35.0834C51.5301 34.4667 51.75 33.7417 51.75 33C51.75 32.0054 51.3549 31.0516 50.6517 30.3483C49.9484 29.6451 48.9946 29.25 48 29.25Z" fill="#D6E4FF"/>
<path d="M48 27.75C49.0384 27.75 50.0534 28.0579 50.9167 28.6348C51.7801 29.2117 52.453 30.0316 52.8504 30.9909C53.2477 31.9502 53.3517 33.0058 53.1491 34.0242C52.9466 35.0426 52.4465 35.9781 51.7123 36.7123C50.9781 37.4465 50.0426 37.9466 49.0242 38.1491C48.0058 38.3517 46.9502 38.2477 45.9909 37.8504C45.0316 37.453 44.2117 36.7801 43.6348 35.9167C43.0579 35.0534 42.75 34.0384 42.75 33C42.75 31.6076 43.3031 30.2723 44.2877 29.2877C45.2723 28.3031 46.6076 27.75 48 27.75ZM48 24.75C46.3683 24.75 44.7733 25.2339 43.4166 26.1404C42.0598 27.0469 41.0024 28.3354 40.378 29.8429C39.7536 31.3504 39.5902 33.0092 39.9085 34.6095C40.2269 36.2098 41.0126 37.6798 42.1664 38.8336C43.3202 39.9874 44.7902 40.7732 46.3905 41.0915C47.9909 41.4098 49.6497 41.2464 51.1571 40.622C52.6646 39.9976 53.9531 38.9402 54.8596 37.5835C55.7661 36.2267 56.25 34.6317 56.25 33C56.25 30.812 55.3808 28.7135 53.8336 27.1664C52.2865 25.6192 50.188 24.75 48 24.75Z" fill="#D6E4FF"/>
<path d="M48 57C48.2967 57 48.5867 57.088 48.8334 57.2528C49.08 57.4176 49.2723 57.6519 49.3858 57.926C49.4994 58.2001 49.5291 58.5017 49.4712 58.7926C49.4133 59.0836 49.2704 59.3509 49.0607 59.5607C48.8509 59.7704 48.5836 59.9133 48.2926 59.9712C48.0017 60.0291 47.7001 59.9993 47.426 59.8858C47.1519 59.7723 46.9176 59.58 46.7528 59.3334C46.588 59.0867 46.5 58.7967 46.5 58.5C46.5 58.1022 46.658 57.7206 46.9393 57.4393C47.2206 57.158 47.6022 57 48 57ZM48 54C47.11 54 46.24 54.2639 45.4999 54.7584C44.7599 55.2529 44.1831 55.9557 43.8425 56.7779C43.5019 57.6002 43.4128 58.505 43.5865 59.3779C43.7601 60.2508 44.1887 61.0526 44.818 61.682C45.4474 62.3113 46.2492 62.7399 47.1221 62.9135C47.995 63.0872 48.8998 62.9981 49.7221 62.6575C50.5443 62.3169 51.2471 61.7401 51.7416 61.0001C52.2361 60.26 52.5 59.39 52.5 58.5C52.5 57.3065 52.0259 56.1619 51.182 55.318C50.3381 54.4741 49.1935 54 48 54Z" fill="#D6E4FF"/>
<path d="M48 51C49.4834 51 50.9334 51.4399 52.1668 52.264C53.4002 53.0881 54.3614 54.2594 54.9291 55.6299C55.4968 57.0003 55.6453 58.5083 55.3559 59.9632C55.0665 61.418 54.3522 62.7544 53.3033 63.8033C52.2544 64.8522 50.918 65.5665 49.4632 65.8559C48.0083 66.1453 46.5003 65.9968 45.1299 65.4291C43.7594 64.8614 42.5881 63.9001 41.764 62.6668C40.9399 61.4334 40.5 59.9834 40.5 58.5C40.5024 56.5116 41.2933 54.6053 42.6993 53.1993C44.1053 51.7933 46.0116 51.0024 48 51ZM48 48C45.9233 48 43.8932 48.6158 42.1665 49.7696C40.4398 50.9233 39.094 52.5632 38.2993 54.4818C37.5045 56.4004 37.2966 58.5116 37.7018 60.5484C38.1069 62.5852 39.1069 64.4562 40.5754 65.9246C42.0438 67.3931 43.9148 68.3931 45.9516 68.7982C47.9884 69.2034 50.0996 68.9955 52.0182 68.2007C53.9368 67.406 55.5767 66.0602 56.7304 64.3335C57.8842 62.6068 58.5 60.5767 58.5 58.5C58.5 55.7152 57.3938 53.0445 55.4246 51.0754C53.4555 49.1062 50.7848 48 48 48Z" fill="#D6E4FF"/>
<path d="M78.5889 72C78.3103 72 78.0372 71.9224 77.8003 71.776C77.5633 71.6295 77.3718 71.42 77.2472 71.1708C77.1227 70.9217 77.0699 70.6427 77.0949 70.3653C77.12 70.0879 77.2217 69.8229 77.3889 69.6C79.7907 66.3978 81.089 62.5029 81.089 58.5C81.089 54.4971 79.7907 50.6023 77.3889 47.4C77.1502 47.0817 77.0477 46.6817 77.1039 46.2879C77.1602 45.894 77.3706 45.5387 77.6889 45.3C78.0071 45.0613 78.4072 44.9588 78.801 45.0151C79.1948 45.0713 79.5502 45.2817 79.7889 45.6C82.5797 49.3217 84.0882 53.8481 84.0882 58.5C84.0882 63.1519 82.5797 67.6783 79.7889 71.4C79.6492 71.5863 79.468 71.7375 79.2597 71.8416C79.0514 71.9458 78.8217 72 78.5889 72Z" fill="#D6E4FF"/>
<path d="M73.4102 67.9995C73.1362 67.9992 72.8675 67.9238 72.6334 67.7815C72.3992 67.6393 72.2084 67.4356 72.0818 67.1926C71.9552 66.9496 71.8976 66.6765 71.9152 66.4031C71.9328 66.1297 72.025 65.8663 72.1817 65.6415C73.6396 63.5454 74.4211 61.0533 74.4211 58.5C74.4211 55.9467 73.6396 53.4546 72.1817 51.3585C71.9781 51.0318 71.908 50.6393 71.9857 50.2622C72.0635 49.8852 72.2833 49.5525 72.5995 49.333C72.9158 49.1135 73.3043 49.024 73.6847 49.083C74.0652 49.142 74.4083 49.345 74.6432 49.65C76.4518 52.2497 77.4212 55.3406 77.4212 58.5075C77.4212 61.6744 76.4518 64.7654 74.6432 67.365C74.5039 67.5622 74.3191 67.7228 74.1044 67.8333C73.8898 67.9438 73.6516 68.0008 73.4102 67.9995Z" fill="#D6E4FF"/>
<path d="M17.4125 72C17.1796 72 16.9499 71.9458 16.7416 71.8416C16.5334 71.7375 16.3522 71.5863 16.2125 71.4C13.4217 67.6783 11.9131 63.1519 11.9131 58.5C11.9131 53.8481 13.4217 49.3217 16.2125 45.6C16.3306 45.4424 16.4787 45.3097 16.6482 45.2093C16.8177 45.1089 17.0053 45.0429 17.2003 45.0151C17.3953 44.9872 17.5939 44.998 17.7847 45.0469C17.9756 45.0958 18.1549 45.1818 18.3125 45.3C18.47 45.4182 18.6028 45.5663 18.7032 45.7358C18.8035 45.9053 18.8695 46.0929 18.8974 46.2879C18.9252 46.4829 18.9144 46.6815 18.8655 46.8723C18.8166 47.0631 18.7306 47.2424 18.6125 47.4C16.2107 50.6022 14.9123 54.4971 14.9123 58.5C14.9123 62.5029 16.2107 66.3978 18.6125 69.6C18.7796 69.8229 18.8814 70.0878 18.9064 70.3653C18.9314 70.6427 18.8787 70.9217 18.7541 71.1708C18.6295 71.42 18.438 71.6295 18.2011 71.776C17.9641 71.9224 17.691 72 17.4125 72Z" fill="#D6E4FF"/>
<path d="M22.5901 67.9993C22.348 67.9997 22.1094 67.9416 21.8947 67.8298C21.68 67.718 21.4955 67.5559 21.3571 67.3573C19.5485 64.7577 18.5791 61.6667 18.5791 58.4998C18.5791 55.3329 19.5485 52.242 21.3571 49.6423C21.5846 49.3159 21.9325 49.0932 22.3242 49.0233C22.716 48.9534 23.1194 49.042 23.4458 49.2696C23.7722 49.4971 23.9949 49.845 24.0648 50.2367C24.1347 50.6285 24.0461 51.0319 23.8186 51.3583C22.3606 53.4544 21.5792 55.9465 21.5792 58.4998C21.5792 61.0531 22.3606 63.5452 23.8186 65.6413C23.9753 65.8661 24.0675 66.1295 24.0851 66.4029C24.1027 66.6763 24.0451 66.9494 23.9185 67.1924C23.7919 67.4354 23.6011 67.6391 23.3669 67.7813C23.1327 67.9236 22.8641 67.999 22.5901 67.9993Z" fill="#D6E4FF"/>
</svg>
