<svg width="96" height="96" viewBox="0 0 96 96" fill="none" xmlns="http://www.w3.org/2000/svg">
<path d="M85.4999 70.3712C85.4981 61.8807 85.5014 26.8601 85.5 17.7115C86.0502 17.7965 86.6122 17.7629 87.1484 17.6129C87.6845 17.4629 88.1824 17.2 88.6086 16.8418C89.0347 16.4836 89.3794 16.0384 89.6194 15.536C89.8593 15.0336 89.9891 14.4858 89.9999 13.9291L90 9.81452C89.9991 8.81195 89.6005 7.85067 88.8917 7.1416C88.1829 6.43253 87.2218 6.03359 86.2192 6.03229H9.7815C8.77881 6.03344 7.81752 6.43231 7.10858 7.14139C6.39964 7.85047 6.00095 8.81183 6 9.81452V13.9292C6.01086 14.4858 6.14065 15.0337 6.38064 15.536C6.62063 16.0384 6.96528 16.4836 7.39147 16.8418C7.81765 17.2 8.31552 17.4629 8.85166 17.6129C9.3878 17.7628 9.94981 17.7964 10.5 17.7114V57.2611V70.3711C9.94981 70.2861 9.3878 70.3197 8.85167 70.4697C8.31553 70.6197 7.81768 70.8827 7.39151 71.2409C6.96534 71.5991 6.6207 72.0443 6.38072 72.5466C6.14073 73.049 6.01096 73.5968 6.00009 74.1535L6 86.1855C6.00095 87.1882 6.39964 88.1496 7.10858 88.8587C7.81752 89.5677 8.77881 89.9666 9.7815 89.9678H86.2192C87.2218 89.9665 88.1829 89.5675 88.8917 88.8585C89.6005 88.1494 89.9991 87.1881 90 86.1855V74.1534C89.9891 73.5967 89.8593 73.0489 89.6193 72.5465C89.3793 72.0442 89.0347 71.599 88.6085 71.2408C88.1823 70.8826 87.6844 70.6197 87.1483 70.4697C86.6121 70.3197 86.0501 70.2861 85.4999 70.3712ZM61.5 9.03224H86.2192C86.4264 9.03276 86.6249 9.11539 86.7713 9.26203C86.9176 9.40867 86.9999 9.60735 87 9.81452V13.9292C86.9999 14.1364 86.9176 14.3351 86.7713 14.4817C86.6249 14.6283 86.4264 14.7109 86.2192 14.7115C84.7127 14.7055 76.6419 14.7153 74.9782 14.7115H61.5V9.03224ZM76.8195 62.0202L82.5 59.7476V64.2549L76.8195 62.0202ZM82.5 67.479V70.371H76.5V65.1187L82.5 67.479ZM76.5 58.9165V48.9564L82.5 53.7659V56.5161L76.5 58.9165ZM76.5 45.1125V44.2073L82.5 41.9075V49.9221L76.5 45.1125ZM76.5 40.9954V30.7891L82.5 35.3692V38.6956L76.5 40.9954ZM76.5 27.0156V26.2575L82.5 24.0778V31.5957L76.5 27.0156ZM76.5 23.0667V17.7115H82.5V20.887L76.5 23.0667ZM73.5 70.3711H22.5V25.1543C23.5214 25.7016 24.6956 25.8939 25.8382 25.7011C26.9808 25.5084 28.027 24.9414 28.8123 24.0894C29.5976 23.2373 30.0775 22.1485 30.1766 20.994C30.2757 19.8395 29.9884 18.6848 29.3599 17.7113L66.6422 17.7114C66.0073 18.684 65.715 19.8405 65.8115 20.9979C65.9079 22.1553 66.3876 23.2474 67.1746 24.1015C67.9617 24.9556 69.0111 25.5228 70.1567 25.7133C71.3024 25.9039 72.4789 25.7069 73.5 25.1535C73.503 31.9725 73.4979 64.2515 73.5 70.3711ZM22.5 21.3843V17.7115H25.1286L26.4382 18.8395C26.8776 19.2332 27.1447 19.7838 27.182 20.3725C27.2193 20.9613 27.0238 21.5412 26.6377 21.9872C26.2515 22.4332 25.7057 22.7098 25.1176 22.7572C24.5296 22.8046 23.9464 22.6191 23.4938 22.2407L22.5 21.3843ZM73.5 21.3848L72.5098 22.2378C72.0566 22.6186 71.4717 22.8054 70.8817 22.7578C70.2918 22.7102 69.7443 22.432 69.3581 21.9835C68.9719 21.535 68.778 20.9524 68.8185 20.3619C68.8589 19.7714 69.1305 19.2207 69.5743 18.829L70.8715 17.7115H73.5V21.3848ZM49.5 9.03232H58.5V14.7115H49.5V9.03232ZM36.8547 9.03232H46.5V14.7115H36.8547V9.03232ZM9.7815 14.7115C9.57426 14.711 9.37565 14.6284 9.22918 14.4818C9.0827 14.3351 9.00029 14.1365 9 13.9292V9.81452C9.00029 9.60728 9.0827 9.4086 9.22918 9.26198C9.37565 9.11537 9.57426 9.03278 9.7815 9.03229H33.8547V14.7115C27.4154 14.7089 16.1479 14.7143 9.7815 14.7115ZM13.5 64.5436V59.4476L19.5 61.848V62.194L13.5 64.5436ZM19.5 65.4145V70.3711H13.5V67.764L19.5 65.4145ZM13.5 56.2155V54.367L19.5 49.5565V58.616L13.5 56.2155ZM13.5 50.5218V41.6235L19.5 43.9233V45.7112L13.5 50.5218ZM13.5 38.4112V35.9396L19.5 31.3595V40.711L13.5 38.4112ZM13.5 32.165V23.8072L19.5 25.9879V27.5849L13.5 32.165ZM13.5 20.6161V17.7115H19.5V22.7968L13.5 20.6161ZM9.7815 86.9678C9.57425 86.9673 9.37564 86.8847 9.22916 86.7381C9.08268 86.5915 9.00028 86.3928 9 86.1855V74.1534C9.00029 73.9461 9.0827 73.7474 9.22918 73.6008C9.37565 73.4542 9.57426 73.3716 9.7815 73.3711H33.2085L28.439 86.9678H9.7815ZM31.6189 86.9678L36.3885 73.3711H59.6123L64.3818 86.9678H31.6189ZM87 86.1855C86.9999 86.3927 86.9176 86.5914 86.7713 86.738C86.6249 86.8846 86.4264 86.9672 86.2192 86.9678H67.5602L62.7907 73.3711H86.2192C86.4264 73.3716 86.6249 73.4542 86.7713 73.6008C86.9176 73.7475 86.9999 73.9462 87 74.1534V86.1855Z" fill="#D6E4FF"/>
<path d="M62.9488 22.9937C62.8918 22.8051 62.7981 22.6296 62.6732 22.4772C62.5483 22.3248 62.3946 22.1986 62.2209 22.1057C62.0471 22.0127 61.8568 21.955 61.6607 21.9357C61.4647 21.9164 61.2667 21.9359 61.0782 21.9932L55.4517 23.7012C55.071 23.8166 54.7517 24.0785 54.564 24.4293C54.3764 24.7801 54.3358 25.191 54.4512 25.5718C54.5666 25.9525 54.8285 26.2718 55.1793 26.4594C55.5301 26.6471 55.9411 26.6876 56.3218 26.5723L61.9483 24.8643C62.1369 24.8072 62.3124 24.7135 62.4647 24.5886C62.6171 24.4637 62.7433 24.31 62.8362 24.1363C62.9291 23.9626 62.9869 23.7722 63.0062 23.5762C63.0255 23.3801 63.006 23.1822 62.9488 22.9937Z" fill="#D6E4FF"/>
<path d="M63.8429 25.4546L60.5763 29.2134C60.325 29.515 60.2019 29.903 60.2334 30.2944C60.2648 30.6857 60.4484 31.0491 60.7447 31.3066C61.041 31.5642 61.4264 31.6954 61.8183 31.6721C62.2101 31.6488 62.5773 31.4728 62.841 31.182L66.1076 27.4233C66.3593 27.1218 66.4828 26.7335 66.4515 26.3419C66.4202 25.9504 66.2366 25.5867 65.9402 25.3289C65.6437 25.0712 65.258 24.94 64.8659 24.9635C64.4737 24.987 64.1065 25.1633 63.8429 25.4546Z" fill="#D6E4FF"/>
<path d="M68.6727 27.9683C68.2798 27.9089 67.8794 28.007 67.5584 28.2413C67.2375 28.4755 67.022 28.827 66.9588 29.2193L66.0506 35.0289C65.9903 35.4216 66.0882 35.8221 66.3228 36.1428C66.5574 36.4634 66.9096 36.6779 67.3022 36.7391C67.6947 36.8004 68.0955 36.7035 68.4167 36.4697C68.7379 36.2358 68.9532 35.8841 69.0155 35.4917L69.9237 29.6823C69.9849 29.2891 69.8875 28.8877 69.6529 28.5663C69.4184 28.245 69.0658 28.0298 68.6727 27.9683Z" fill="#D6E4FF"/>
<path d="M40.9812 23.7012L35.3547 21.9932C34.9767 21.8867 34.572 21.9326 34.2274 22.1212C33.8829 22.3097 33.626 22.6258 33.512 23.0016C33.3979 23.3775 33.4357 23.783 33.6173 24.1313C33.7989 24.4795 34.1098 24.7427 34.4832 24.8643C34.6077 24.8786 40.594 26.7868 40.5461 26.6367C40.9021 26.6302 41.2442 26.4977 41.5117 26.2627C41.7791 26.0277 41.9545 25.7054 42.0067 25.3532C42.0589 25.001 41.9845 24.6417 41.7968 24.3392C41.609 24.0367 41.32 23.8107 40.9812 23.7012Z" fill="#D6E4FF"/>
<path d="M32.5881 25.4546C32.3245 25.1633 31.9572 24.9869 31.5651 24.9634C31.1729 24.9399 30.7872 25.0711 30.4907 25.3288C30.1942 25.5866 30.0106 25.9503 29.9794 26.342C29.9481 26.7336 30.0717 27.1218 30.3235 27.4234L33.5907 31.1821C33.8521 31.4815 34.2215 31.6649 34.6179 31.6922C35.0143 31.7195 35.4054 31.5884 35.7053 31.3277C36.0052 31.067 36.1894 30.6979 36.2176 30.3016C36.2457 29.9052 36.1154 29.5138 35.8554 29.2134L32.5881 25.4546Z" fill="#D6E4FF"/>
<path d="M27.7596 27.9683C27.3668 28.0301 27.0146 28.2454 26.7803 28.5667C26.546 28.888 26.4488 29.2892 26.5101 29.6822L27.4191 35.4917C27.4492 35.6866 27.5174 35.8736 27.6198 36.0421C27.7222 36.2106 27.8568 36.3573 28.016 36.4737C28.1752 36.5901 28.3557 36.6739 28.5474 36.7205C28.739 36.767 28.9379 36.7753 29.1327 36.7449C29.3275 36.7144 29.5145 36.6459 29.6828 36.5431C29.8511 36.4404 29.9974 36.3054 30.1135 36.146C30.2296 35.9866 30.3131 35.8059 30.3593 35.6142C30.4054 35.4225 30.4133 35.2235 30.3825 35.0288L29.4735 29.2192C29.4113 28.8265 29.196 28.4744 28.8748 28.2399C28.5536 28.0055 28.1526 27.9078 27.7596 27.9683Z" fill="#D6E4FF"/>
</svg>
