<svg width="96" height="96" viewBox="0 0 96 96" fill="none" xmlns="http://www.w3.org/2000/svg">
<g clip-path="url(#clip0_339_1455)">
<path d="M95.5296 18.0671L84.5407 7.0783C83.1356 5.63699 81.2128 4.81686 79.2 4.79999H16.8C14.7872 4.81686 12.8644 5.63699 11.4593 7.0783L0.470438 18.0671C0.171188 18.3684 0.00225 18.7753 0 19.2V87.9999C0 89.7673 1.43269 91.2 3.20006 91.2H92.8001C94.5675 91.2 96.0002 89.7673 96.0002 87.9999V19.2C95.9977 18.7753 95.8288 18.3684 95.5296 18.0671ZM13.7216 9.34086C14.5284 8.50199 15.6364 8.01955 16.8 8.00005H79.2C80.3653 8.01824 81.4753 8.50086 82.2832 9.34086L90.5376 17.6H5.46244L13.7216 9.34086ZM92.7999 87.9999H3.20006V20.7999H92.8001L92.7999 87.9999Z" fill="#D6E4FF"/>
<path d="M11.2001 41.6H48.0001C49.7675 41.6 51.2002 40.1674 51.2002 38.4V28.8C51.2002 27.0326 49.7675 25.5999 48.0001 25.5999H11.2001C9.43269 25.5999 8 27.0326 8 28.8V38.4C8.00019 40.1674 9.43288 41.6 11.2001 41.6ZM11.2001 28.8H48.0001V38.4H11.2001V28.8Z" fill="#D6E4FF"/>
<path d="M9.59994 60.8001H11.1999V81.6C11.1999 82.4837 11.9161 83.1999 12.7998 83.1999C13.6835 83.1999 14.3998 82.4837 14.3998 81.6V60.8001H15.9997C16.8834 60.8001 17.5996 60.0838 17.5996 59.2001C17.5996 58.3164 16.8832 57.6002 15.9997 57.6002H14.3999V52.8002C14.3999 51.9165 13.6837 51.2003 12.8 51.2003C11.9163 51.2003 11.2001 51.9167 11.2001 52.8002V57.6002H9.59994C8.71625 57.6002 8 58.3164 8 59.2001C8 60.0838 8.71625 60.8001 9.59994 60.8001Z" fill="#D6E4FF"/>
<path d="M27.2009 72H25.6009V52.8C25.6009 51.9163 24.8847 51.2001 24.001 51.2001C23.1173 51.2001 22.401 51.9165 22.401 52.8V72H20.8011C19.9174 72 19.2012 72.7163 19.2012 73.5999C19.2012 74.4836 19.9174 75.1999 20.8011 75.1999H22.401V81.6C22.401 82.4837 23.1173 83.2 24.001 83.2C24.8847 83.2 25.6009 82.4837 25.6009 81.6V75.2001H27.2009C28.0845 75.2001 28.8008 74.4838 28.8008 73.6001C28.8008 72.7164 28.0844 72 27.2009 72Z" fill="#D6E4FF"/>
<path d="M38.4001 64H36.8001V52.8C36.8001 51.9163 36.0839 51.2001 35.2002 51.2001C34.3165 51.2001 33.6003 51.9165 33.6003 52.8V64H32.0003C31.1166 64 30.4004 64.7164 30.4004 65.5999C30.4004 66.4834 31.1166 67.1998 32.0003 67.1998H33.6003V81.5998C33.6003 82.4835 34.3165 83.1998 35.2002 83.1998C36.0839 83.1998 36.8001 82.4835 36.8001 81.5998V67.1998H38.4001C39.2838 67.1998 40 66.4836 40 65.5999C40 64.7162 39.2838 64 38.4001 64Z" fill="#D6E4FF"/>
<path d="M49.5995 57.6H47.9995V52.8C47.9995 51.9163 47.2833 51.2001 46.3996 51.2001C45.5159 51.2001 44.7997 51.9165 44.7997 52.8V57.6H43.1995C42.3159 57.6 41.5996 58.3163 41.5996 59.2C41.5996 60.0836 42.3159 60.7999 43.1995 60.7999H44.7995V81.6C44.7995 82.4837 45.5157 83.2 46.3994 83.2C47.2831 83.2 47.9995 82.4837 47.9995 81.6V60.8001H49.5995C50.4832 60.8001 51.1994 60.0838 51.1994 59.2001C51.1994 58.3165 50.4832 57.6 49.5995 57.6Z" fill="#D6E4FF"/>
<path d="M56.0003 60.8001H57.6003V81.6C57.6003 82.4837 58.3165 83.1999 59.2002 83.1999C60.0839 83.1999 60.8001 82.4837 60.8001 81.6V60.8001H62.4001C63.2838 60.8001 64 60.0838 64 59.2001C64 58.3164 63.2836 57.6002 62.4001 57.6002H60.8001V52.8002C60.8001 51.9165 60.0839 51.2003 59.2002 51.2003C58.3165 51.2003 57.6003 51.9167 57.6003 52.8002V57.6002H56.0003C55.1166 57.6002 54.4004 58.3164 54.4004 59.2001C54.4004 60.0838 55.1166 60.8001 56.0003 60.8001Z" fill="#D6E4FF"/>
<path d="M68.7995 52.8V72H67.1995C66.3159 72 65.5996 72.7163 65.5996 73.5999C65.5996 74.4836 66.3159 75.1999 67.1995 75.1999H68.7995V81.6C68.7995 82.4837 69.5157 83.2 70.3994 83.2C71.2831 83.2 71.9995 82.4837 71.9995 81.6V75.2001H73.5995C74.4832 75.2001 75.1994 74.4838 75.1994 73.6001C75.1994 72.7164 74.4832 72 73.5995 72H71.9995V52.8C71.9995 51.9163 71.2833 51.2001 70.3996 51.2001C69.5159 51.2001 68.7995 51.9163 68.7995 52.8Z" fill="#D6E4FF"/>
<path d="M84.8005 64H83.2005V52.8C83.2005 51.9163 82.4843 51.2001 81.6006 51.2001C80.7169 51.2001 80.0007 51.9165 80.0007 52.8V64H78.4007C77.517 64 76.8008 64.7164 76.8008 65.5999C76.8008 66.4834 77.517 67.1998 78.4007 67.1998H80.0007V81.5998C80.0007 82.4835 80.7169 83.1998 81.6006 83.1998C82.4843 83.1998 83.2005 82.4835 83.2005 81.5998V67.1998H84.8005C85.6842 67.1998 86.4004 66.4836 86.4004 65.5999C86.4004 64.7162 85.684 64 84.8005 64Z" fill="#D6E4FF"/>
<path d="M11.1995 44.7999C10.3159 44.7999 9.59961 45.5162 9.59961 46.3999C9.59961 47.2836 10.316 48 11.1995 48H14.3996C15.2833 48 15.9995 47.2837 15.9995 46.4001C15.9995 45.5164 15.2833 44.8001 14.3996 44.8001H11.1995V44.7999Z" fill="#D6E4FF"/>
<path d="M25.6008 48C26.4845 48 27.2007 47.2837 27.2007 46.4C27.2007 45.5164 26.4845 44.8001 25.6008 44.8001H22.4007C21.517 44.8001 20.8008 45.5164 20.8008 46.4C20.8008 47.2837 21.517 48 22.4007 48H25.6008Z" fill="#D6E4FF"/>
<path d="M36.8 48C37.6837 48 38.3999 47.2837 38.3999 46.4C38.3999 45.5164 37.6837 44.8001 36.8 44.8001H33.5999C32.7162 44.8001 32 45.5164 32 46.4C32 47.2837 32.7162 48 33.5999 48H36.8Z" fill="#D6E4FF"/>
<path d="M47.9992 48C48.8829 48 49.5992 47.2837 49.5992 46.4C49.5992 45.5164 48.8829 44.8001 47.9992 44.8001H44.7992C43.9155 44.8001 43.1992 45.5164 43.1992 46.4C43.1992 47.2837 43.9155 48 44.7992 48H47.9992Z" fill="#D6E4FF"/>
<path d="M57.6005 46.4C58.4841 46.4 59.2004 45.6838 59.2004 44.8001C59.2004 43.9164 58.4841 43.2002 57.6005 43.2002V28.8002H67.2005V43.2002C66.3168 43.2002 65.6005 43.9164 65.6005 44.8001C65.6005 45.6838 66.3168 46.4 67.2005 46.4C68.9678 46.4 70.4005 44.9674 70.4005 43.2V28.8C70.4005 27.0326 68.9678 25.5999 67.2005 25.5999H57.6005C55.8331 25.5999 54.4004 27.0326 54.4004 28.8V43.2C54.4004 44.9674 55.8331 46.4 57.6005 46.4Z" fill="#D6E4FF"/>
<path d="M76.7997 46.4C77.6834 46.4 78.3996 45.6838 78.3996 44.8001C78.3996 43.9164 77.6834 43.2002 76.7997 43.2002V28.8002H86.3997V43.2002C85.516 43.2002 84.7997 43.9164 84.7997 44.8001C84.7997 45.6838 85.5162 46.4 86.3997 46.4C88.167 46.4 89.5997 44.9674 89.5997 43.2V28.8C89.5997 27.0326 88.167 25.5999 86.3997 25.5999H76.7997C75.0323 25.5999 73.5996 27.0326 73.5996 28.8V43.2C73.5996 44.9674 75.0323 46.4 76.7997 46.4Z" fill="#D6E4FF"/>
<path d="M62.4007 32.0001C61.517 32.0001 60.8008 32.7163 60.8008 33.6V38.4C60.8008 39.2837 61.5172 39.9999 62.4007 39.9999C63.2844 39.9999 64.0007 39.2837 64.0007 38.4V33.6C64.0007 32.7163 63.2844 32.0001 62.4007 32.0001Z" fill="#D6E4FF"/>
<path d="M81.5999 39.9999C82.4836 39.9999 83.1999 39.2837 83.1999 38.4V33.6C83.1999 32.7163 82.4836 32.0001 81.5999 32.0001C80.7163 32.0001 80 32.7163 80 33.6V38.4C80 39.2837 80.7163 39.9999 81.5999 39.9999Z" fill="#D6E4FF"/>
</g>
<defs>
<clipPath id="clip0_339_1455">
<rect width="96" height="96" fill="white"/>
</clipPath>
</defs>
</svg>
