<svg width="96" height="96" viewBox="0 0 96 96" fill="none" xmlns="http://www.w3.org/2000/svg">
<g clip-path="url(#clip0_339_1481)">
<path d="M95.5119 77.058C95.5104 76.1401 95.2603 75.2397 94.7885 74.4525L90.914 67.988V60.2207L91.6298 59.8436C93.7789 58.711 94.603 56.0508 93.4704 53.9017C92.7097 52.4581 91.2125 51.5543 89.5807 51.5537C88.1923 51.5541 86.8248 51.8918 85.5959 52.5376L59.5414 66.25C57.3915 67.3828 56.5668 70.044 57.6996 72.1938C58.4615 73.6399 59.9621 74.5445 61.5966 74.543C62.5593 74.5389 63.5143 74.3721 64.4212 74.0495L71.3333 78.658L74.7848 85.5548C75.7304 87.6066 77.9816 88.7183 80.1857 88.2215V94.467C80.1857 95.3133 80.872 95.9996 81.7183 95.9996H93.9793C94.8257 95.9996 95.5119 95.3133 95.5119 94.467V85.2713C95.5067 83.6204 94.9632 82.0166 93.9639 80.7025C94.9523 79.7475 95.5109 78.4323 95.5119 77.058ZM87.8488 67.5021L72.6023 75.8196L67.606 72.4892L87.8488 61.8345V67.5021ZM60.2617 70.1428C60.2619 69.6472 60.5361 69.1924 60.9744 68.9612L87.0289 55.2488C87.8162 54.8364 88.6917 54.6203 89.5807 54.6189C90.3171 54.6232 90.9106 55.2236 90.9064 55.9598C90.9035 56.4523 90.6295 56.9031 90.1937 57.1324L64.1392 70.8478C63.3545 71.2589 62.4825 71.4748 61.5966 71.4777C60.8596 71.477 60.2625 70.8798 60.2617 70.1428ZM77.5266 84.1862L74.5549 78.2458L88.8251 70.4631L92.1585 76.0204C92.6926 76.8997 92.4649 78.0415 91.6344 78.6488C90.4859 77.9754 89.1803 77.6164 87.8488 77.6082C83.7184 77.6193 80.3399 80.9022 80.2102 85.0306C79.2351 85.5295 78.0403 85.1534 77.5266 84.1862ZM92.4467 92.9343H83.251V85.2713C83.251 82.7319 85.3095 80.6734 87.8488 80.6734C90.3882 80.6734 92.4467 82.7319 92.4467 85.2713V92.9343Z" fill="#D6E4FF"/>
<path d="M86.3164 83.7393H89.3816V86.8045H86.3164V83.7393Z" fill="#D6E4FF"/>
<path d="M15.8147 94.467V88.2215C18.0179 88.7181 20.2685 87.6081 21.2157 85.5579L24.6671 78.6611L31.5792 74.0525C32.4863 74.3742 33.4414 74.5399 34.4038 74.543C36.834 74.5428 38.8038 72.5724 38.8036 70.1424C38.8034 68.5096 37.8992 67.0111 36.4545 66.25L10.4 52.5376C9.17238 51.8926 7.80663 51.5549 6.41981 51.5537C3.99061 51.5547 2.02196 53.5247 2.02273 55.9538C2.02331 57.5855 2.92717 59.0829 4.3707 59.8436L5.08643 60.2207V67.988L1.21044 74.4479C-0.00300452 76.471 0.339535 79.0638 2.03652 80.7025C1.03726 82.0166 0.493755 83.6204 0.488582 85.2713V94.467C0.488582 95.3133 1.17481 95.9996 2.0212 95.9996H14.2821C15.1285 95.9996 15.8147 95.3133 15.8147 94.467ZM6.41981 54.6189C7.30815 54.6205 8.18308 54.8366 8.97008 55.2488L35.0245 68.9612C35.6772 69.3041 35.9282 70.1112 35.5853 70.7639C35.356 71.2003 34.9046 71.4748 34.4115 71.4777C33.5241 71.4756 32.6503 71.2595 31.8643 70.8478L5.80982 57.1324C5.15808 56.7897 4.9075 55.9835 5.25023 55.3316C5.47897 54.8967 5.92841 54.6228 6.41981 54.6189ZM28.3944 72.4892L23.3981 75.8196L8.15166 67.5021V61.8314L28.3944 72.4892ZM3.84041 76.0235L7.17539 70.4631L21.4456 78.2458L18.4738 84.1877C17.9585 85.1531 16.765 85.528 15.7902 85.0306C15.6605 80.9022 12.2821 77.6193 8.15166 77.6082C6.8202 77.6164 5.5146 77.9754 4.3661 78.6488C3.536 78.0427 3.30764 76.9024 3.84041 76.0235ZM12.7495 92.9343H3.55381V85.2713C3.55381 82.7319 5.61231 80.6734 8.15166 80.6734C10.691 80.6734 12.7495 82.7319 12.7495 85.2713V92.9343Z" fill="#D6E4FF"/>
<path d="M6.61719 83.7391H9.68242V86.8043H6.61719V83.7391Z" fill="#D6E4FF"/>
<path d="M10.0103 48.6437C9.86075 49.1753 10.1704 49.7274 10.702 49.877L11.7286 50.1659C12.2603 50.3156 12.8126 50.0058 12.9622 49.4741L20.5205 22.5999C20.7388 21.8239 21.7384 21.6119 22.2529 22.2324L45.478 50.2399C45.785 50.6101 45.785 51.1464 45.4779 51.5166L36.728 62.0662C36.3755 62.4912 36.4342 63.1215 36.8591 63.4742L37.6802 64.1555C38.1053 64.5083 38.736 64.4495 39.0886 64.0243L47.2284 54.2068C47.6283 53.7245 48.3682 53.7245 48.7681 54.2068L56.9079 64.0243C57.2605 64.4495 57.8912 64.5083 58.3163 64.1555L59.1374 63.4742C59.5623 63.1215 59.621 62.4912 59.2685 62.0662L50.5186 51.5166C50.2115 51.1464 50.2115 50.6101 50.5185 50.2399L73.7436 22.2324C74.2581 21.6119 75.2577 21.8239 75.476 22.5999L83.0343 49.4741C83.1839 50.0058 83.7362 50.3156 84.2679 50.1659L85.2945 49.877C85.826 49.7274 86.1357 49.1753 85.9862 48.6437L77.4807 18.403C77.3918 18.0867 77.4639 17.7469 77.6736 17.494L89.9204 2.72569C90.273 2.30044 90.2141 1.66981 89.7887 1.31734L88.9685 0.637776C88.5433 0.285503 87.9131 0.344464 87.5607 0.769488L77.5467 12.846C77.0321 13.4666 76.0325 13.2545 75.8143 12.4784L72.7342 1.52531C72.5846 0.99358 72.0323 0.683783 71.5006 0.833412L70.474 1.1223C69.9425 1.27189 69.6328 1.82405 69.7823 2.35564L73.8095 16.6755C73.8985 16.9918 73.8263 17.3316 73.6166 17.5846L48.768 47.5484C48.3681 48.0306 47.6284 48.0306 47.2285 47.5484L22.3799 17.5846C22.1701 17.3316 22.098 16.9918 22.187 16.6755L26.2142 2.35564C26.3637 1.82405 26.054 1.27189 25.5225 1.1223L24.4959 0.833412C23.9642 0.683783 23.4119 0.993579 23.2623 1.52531L20.1822 12.4784C19.964 13.2544 18.9644 13.4666 18.4498 12.846L8.4358 0.769488C8.08336 0.344465 7.45316 0.285503 7.028 0.637776L6.20784 1.31734C5.78244 1.66981 5.72345 2.30044 6.0761 2.72569L18.3229 17.494C18.5326 17.7469 18.6047 18.0867 18.5158 18.403L10.0103 48.6437Z" fill="#D6E4FF"/>
</g>
<defs>
<clipPath id="clip0_339_1481">
<rect width="96" height="96" fill="white"/>
</clipPath>
</defs>
</svg>
