<svg width="32" height="32" viewBox="0 0 32 32" fill="none" xmlns="http://www.w3.org/2000/svg">
<path d="M18.45 11.35L19.7 2.05C18.5 1.75 17.3 1 16 1C14.7 1 13.5 1.75 12.25 2.1C11 2.4 9.6 2.35 8.5 3C7.4 3.65 6.7 4.9 5.8 5.8C4.9 6.7 3.65 7.4 3 8.5C2.35 9.6 2.4 11 2.05 12.25C1.75 13.5 1 14.7 1 16C1 17.3 1.75 18.5 2.1 19.75C2.4 21 2.35 22.4 3 23.5C3.65 24.6 4.9 25.3 5.8 26.2C6.7 27.1 7.35 28.35 8.5 29C9.6 29.65 11 29.6 12.25 29.95C13.5 30.25 14.7 31 16 31C17.3 31 18.5 30.25 19.75 29.9C21 29.55 22.4 29.6 23.5 28.95C24.6 28.3 25.3 27.05 26.2 26.15C27.1 25.25 28.35 24.6 29 23.45C29.65 22.35 29.6 20.95 29.95 19.7C30.25 18.5 31 17.3 31 16C31 14.7 29.95 11.95 29.95 11.95L18.45 11.35Z" fill="#DDA85F"/>
<path d="M29.7001 11.2C29.2001 11.35 28.5 11.3 27.75 11C26.7001 10.6 26.0501 9.75 25.85 8.75C25.35 8.9 24.15 8.75 23.35 8.25C22.15 7.5 21.9 5.4 21.9 5.4C20.55 5 19.5501 3.4 19.7001 2.05C18.6 1.75 17.2 1.8 16 1.8C14.8 1.8 13.7 2.5 12.6 2.8C11.45 3.1 10.15 3.05 9.15005 3.65C8.15005 4.25 7.50005 5.4 6.70005 6.2C5.85005 7.05 4.70005 7.65 4.15005 8.65C3.55005 9.65 3.60005 10.95 3.30005 12.1C3.00005 13.2 2.30005 14.3 2.30005 15.5C2.30005 16.7 3.00005 17.8 3.30005 18.9C3.60005 20.05 3.55005 21.35 4.15005 22.35C4.75005 23.35 5.90005 24 6.70005 24.8C7.55005 25.65 8.15005 26.8 9.15005 27.35C10.15 27.95 11.45 27.9 12.6 28.2C13.7 28.5 14.8 29.2 16 29.2C17.2 29.2 18.3 28.5 19.4 28.2C20.55 27.9 21.85 27.95 22.85 27.35C23.85 26.75 24.5 25.6 25.3 24.8C26.15 23.95 27.3001 23.35 27.85 22.35C28.4501 21.35 28.4001 20.05 28.7001 18.9C29 17.8 30.2001 16.9 30.35 15.7C30.75 13.75 29.75 11.55 29.7001 11.2Z" fill="#F2CB7D"/>
<path d="M25.0501 5.4002L24.3501 6.1002L23.7001 5.4002L24.3501 4.7502L25.0501 5.4002ZM27.9001 8.9002L27.6001 9.2502L27.2501 8.9002L27.6001 8.5502L27.9001 8.9002ZM25.4001 6.6002L25.0501 6.9502L24.7001 6.6002L25.0501 6.2502L25.4001 6.6002ZM22.3001 3.5502L21.9501 3.9002L21.6001 3.5502L21.9501 3.2002L22.3001 3.5502ZM28.6001 10.1502L28.2501 10.5002L27.9001 10.1502L28.2501 9.8002L28.6001 10.1502ZM28.9001 8.9002L28.5501 9.2502L28.2001 8.9002L28.5501 8.5502L28.9001 8.9002Z" fill="#DDA85F"/>
<path d="M5.90012 10.3002C5.40012 11.1502 6.15012 12.7002 7.15012 13.1502C8.60012 13.7502 9.45012 13.8502 10.3501 12.3002C10.6501 11.7502 11.0501 10.3002 10.9001 9.9502C10.7001 9.4502 9.85012 8.4502 9.30012 8.4502C7.75012 8.5002 6.25012 9.7002 5.90012 10.3002Z" fill="#6D4934"/>
<path d="M6.15007 10.3002C5.80007 10.9002 6.70007 12.7002 7.90007 12.5502C9.55007 12.3502 9.40007 8.9502 8.70007 8.9502C7.50007 8.9502 6.40007 9.8502 6.15007 10.3002Z" fill="#A37F6A"/>
<path d="M22.5999 19.5498C23.2999 19.3498 23.7999 18.0998 23.4999 17.3498C23.0499 16.1998 22.5999 15.6998 21.2999 16.0498C20.8499 16.1998 19.7999 16.7498 19.6999 16.9998C19.5499 17.3998 19.4499 18.3998 19.7499 18.6998C20.5999 19.5498 22.0999 19.6998 22.5999 19.5498Z" fill="#6D4934"/>
<path d="M21.9 18.3499C22.45 18.1999 23.3 16.4999 22.4 16.3999C20.85 16.1499 19.65 16.8999 19.8 17.7499C19.95 18.5999 21.5 18.4499 21.9 18.3499Z" fill="#A37F6A"/>
<path d="M12.4501 22.2498C12.3001 21.6498 11.2001 21.1998 10.5001 21.4998C9.50008 21.8998 9.05008 22.2498 9.40008 23.3998C9.50008 23.7998 10.0001 24.6998 10.2501 24.7498C10.6001 24.8998 11.4501 24.9498 11.7001 24.6998C12.4501 23.9998 12.5501 22.6998 12.4501 22.2498Z" fill="#6D4934"/>
<path d="M11.6001 21.7999C11.5001 21.3499 9.40009 21.9999 9.60009 22.7999C10.0001 24.1499 10.0001 24.3499 10.4001 24.2999C11.1501 24.0999 11.6501 22.1499 11.6001 21.7999Z" fill="#A37F6A"/>
<path d="M25.5501 12.75C24.9501 12.9 24.5001 14 24.8001 14.7C25.2001 15.7 26.1501 15.85 27.2001 15.3C28.1001 14.85 28.1501 13.25 27.9001 12.95C27.1501 12.2 26.0001 12.65 25.5501 12.75Z" fill="#6D4934"/>
<path d="M25.3001 13.2999C25.0001 13.6499 24.7501 15.0499 25.5001 14.8499C26.8501 14.4499 27.8001 13.0999 27.2001 12.8999C26.4501 12.6499 25.6501 12.8999 25.3001 13.2999Z" fill="#A37F6A"/>
<path d="M11.3701 8.05592L12.3601 7.06592L13.3501 8.05592L12.3601 9.04592L11.3701 8.05592Z" fill="#6D4934"/>
<path d="M7.35303 16.7413L8.34253 15.7513L9.33253 16.7408L8.34303 17.7308L7.35303 16.7413ZM17.349 22.4053L18.339 21.4153L19.329 22.4053L18.339 23.3953L17.349 22.4053ZM16.019 19.6443L17.3625 18.3008L18.706 19.6443L17.3625 20.9878L16.019 19.6443ZM12.348 4.91332L13.6915 3.56982L15.035 4.91332L13.6915 6.25682L12.348 4.91332Z" fill="#DDA85F"/>
<path d="M20.561 23.1737L21.551 22.1837L22.541 23.1737L21.551 24.1637L20.561 23.1737ZM24.538 17.6077L25.528 16.6177L26.518 17.6077L25.528 18.5977L24.538 17.6077ZM20.906 12.3187L21.401 11.8237L21.896 12.3187L21.401 12.8137L20.906 12.3187ZM6.86304 19.1332L7.35804 18.6382L7.85304 19.1332L7.35804 19.6282L6.86304 19.1332Z" fill="#6D4934"/>
</svg>
