<svg width="36" height="36" viewBox="0 0 36 36" fill="none" xmlns="http://www.w3.org/2000/svg">
<circle cx="18" cy="18" r="18" fill="#F0F5FF"/>
<path d="M26.8252 22.6038C26.8252 22.5291 26.7504 22.5291 26.7504 22.4544C26.4516 21.8566 25.7791 21.1094 24.8824 20.2875C24.4341 19.9139 24.2099 19.615 24.0605 19.4656C23.8363 19.1667 23.8364 18.9425 23.9111 18.6436C23.9858 18.4195 24.2847 18.0459 24.8077 17.3734C25.1066 16.9998 25.256 16.7756 25.4802 16.5515C26.601 15.057 27.124 14.0857 26.9746 13.6373L26.8999 13.5626C26.8252 13.4879 26.7504 13.4132 26.601 13.4132C26.4516 13.3385 26.2274 13.3385 26.0032 13.4132H23.1639C23.0891 13.4132 23.0891 13.4132 22.9397 13.4132C22.865 13.4132 22.7903 13.4132 22.7903 13.4132H22.7155H22.6408L22.5661 13.4879C22.4914 13.5626 22.4914 13.5626 22.4914 13.6373C22.1925 14.4593 21.8189 15.1318 21.4453 15.879C21.2211 16.2526 20.997 16.6262 20.7728 16.9251C20.5486 17.2239 20.3992 17.4481 20.2497 17.5975C20.1003 17.747 19.9509 17.8217 19.8761 17.9711C19.8014 18.0459 19.652 18.1206 19.652 18.0459C19.5773 18.0459 19.5025 18.0459 19.5025 17.9711C19.4278 17.8964 19.3531 17.8217 19.2784 17.747C19.2037 17.6723 19.2037 17.5228 19.1289 17.3734C19.1289 17.2239 19.1289 17.0745 19.1289 16.9998C19.1289 16.9251 19.1289 16.7009 19.1289 16.5515C19.1289 16.3273 19.1289 16.1779 19.1289 16.1031C19.1289 15.879 19.1289 15.5801 19.1289 15.2812C19.1289 14.9823 19.1289 14.7582 19.1289 14.6087C19.1289 14.4593 19.1289 14.2351 19.1289 14.0857C19.1289 13.8615 19.1289 13.7121 19.1289 13.6373C19.1289 13.5626 19.0542 13.4132 19.0542 13.3385C18.9795 13.2638 18.9048 13.189 18.8301 13.1143C18.7553 13.0396 18.6059 13.0396 18.5312 12.9649C18.1576 12.8901 17.7093 12.8154 17.1862 12.8154C15.9907 12.8154 15.1688 12.8902 14.8699 13.0396C14.7204 13.1143 14.571 13.189 14.4963 13.3385C14.3468 13.4879 14.3468 13.5626 14.4215 13.5626C14.7951 13.6374 15.094 13.7868 15.2435 14.011L15.3182 14.1604C15.3929 14.2351 15.3929 14.3846 15.4676 14.6087C15.5423 14.8329 15.5424 15.057 15.5424 15.3559C15.5424 15.8043 15.5424 16.2526 15.5424 16.5515C15.5424 16.9251 15.4676 17.1492 15.4676 17.3734C15.4676 17.5975 15.3929 17.747 15.3182 17.8217C15.2435 17.9712 15.2435 18.0459 15.1687 18.0459C15.1687 18.0459 15.1687 18.1206 15.094 18.1206C15.0193 18.1206 14.9446 18.1953 14.7951 18.1953C14.7204 18.1953 14.571 18.1206 14.4963 18.0459C14.3468 17.9712 14.1974 17.8217 14.1227 17.6723C13.9732 17.5228 13.8238 17.2987 13.6743 16.9998C13.5249 16.7009 13.3007 16.402 13.1513 15.9537L13.0019 15.6548C12.9271 15.5054 12.7777 15.2065 12.6283 14.8329C12.4788 14.4593 12.3294 14.1604 12.1799 13.7868C12.1052 13.6374 12.0305 13.5626 11.9558 13.4879H11.881C11.881 13.4879 11.8063 13.4132 11.7316 13.4132C11.6569 13.4132 11.5822 13.3385 11.5074 13.3385H8.81749C8.51861 13.3385 8.36917 13.4132 8.29445 13.4879L8.21973 13.5626C8.21973 13.5626 8.21973 13.6374 8.21973 13.7121C8.21973 13.7868 8.21973 13.8615 8.29445 14.011C8.66805 14.9076 9.11638 15.8043 9.5647 16.7009C10.013 17.5228 10.4614 18.27 10.7602 18.7931C11.1338 19.3161 11.4327 19.8392 11.8063 20.2875C12.1799 20.7358 12.4041 21.0347 12.4788 21.1841C12.6282 21.3336 12.703 21.4083 12.7777 21.483L13.0019 21.7072C13.1513 21.8566 13.3755 22.0808 13.6743 22.3049C13.9732 22.5291 14.3468 22.7533 14.7204 22.9774C15.094 23.2016 15.5424 23.351 15.9907 23.5005C16.5137 23.6499 16.962 23.7246 17.4104 23.6499H18.5312C18.7553 23.6499 18.9048 23.5752 19.0542 23.4258L19.1289 23.351C19.1289 23.2763 19.2037 23.2763 19.2037 23.2016C19.2037 23.1269 19.2037 23.0522 19.2037 22.9027C19.2037 22.6038 19.2037 22.3797 19.2784 22.1555C19.3531 21.9313 19.3531 21.7819 19.4278 21.6325C19.5026 21.483 19.5773 21.4083 19.652 21.3336C19.7267 21.2589 19.8014 21.1841 19.8014 21.1841H19.8761C20.0256 21.1094 20.2498 21.1841 20.3992 21.3336C20.6234 21.483 20.8475 21.7072 20.9969 21.9313C21.1464 22.1555 21.3706 22.3797 21.6695 22.6786C21.9683 22.9774 22.1925 23.2016 22.3419 23.2763L22.5661 23.4258C22.7155 23.5005 22.865 23.5752 23.0891 23.6499C23.3133 23.7246 23.4627 23.7246 23.6122 23.7246L26.1527 23.6499C26.3769 23.6499 26.601 23.5752 26.7504 23.5005C26.8999 23.4258 26.9746 23.351 26.9746 23.2016C26.9746 23.1269 26.9746 22.9774 26.9746 22.9027C26.8252 22.7533 26.8252 22.6785 26.8252 22.6038Z" fill="#597EF7"/>
</svg>
