<svg width="32" height="32" viewBox="0 0 32 32" fill="none" xmlns="http://www.w3.org/2000/svg">
<path d="M16.0309 9.46832C17.1335 9.46832 18.0329 10.3677 18.0329 11.4703C18.0329 12.5728 17.1335 13.4721 16.0309 13.4721C14.9285 13.4721 14.0291 12.5728 14.0291 11.4703C14 10.3677 14.8995 9.46832 16.0309 9.46832Z" fill="#D6E4FF"/>
<path fill-rule="evenodd" clip-rule="evenodd" d="M16 0C7.16344 0 0 7.16344 0 16C0 24.8366 7.16344 32 16 32C24.8366 32 32 24.8366 32 16C32 7.16344 24.8366 0 16 0ZM16.0309 16.3155C18.7003 16.3155 20.8763 14.1395 20.8763 11.4703C20.8763 8.80101 18.7003 6.625 16.0309 6.625C13.3327 6.625 11.1567 8.80101 11.1567 11.4703C11.1567 14.1395 13.3327 16.3155 16.0309 16.3155ZM17.9749 20.2904C18.9613 20.0583 19.9188 19.6811 20.7892 19.1299C21.4565 18.7236 21.6596 17.8243 21.2244 17.1569C20.8183 16.4896 19.9188 16.2865 19.2515 16.7217C17.2785 17.9693 14.6964 17.9693 12.7235 16.7217C12.0562 16.3156 11.1858 16.4896 10.7506 17.1569C10.3734 17.8243 10.5765 18.6947 11.2438 19.1008C12.1142 19.6521 13.0716 20.0292 14.0581 20.2613L11.3599 22.9596C10.8086 23.5109 10.8086 24.4103 11.3599 24.9616C11.65 25.2517 11.9982 25.3677 12.3753 25.3677C12.7525 25.3677 13.1007 25.2227 13.3908 24.9616L16.06 22.2923L18.7293 24.9616C19.2805 25.5128 20.18 25.5128 20.7312 24.9616C21.2824 24.4103 21.2824 23.5109 20.7312 22.9596L17.9749 20.2904Z" fill="#D6E4FF"/>
</svg>
