<svg width="36" height="36" viewBox="0 0 36 36" fill="none" xmlns="http://www.w3.org/2000/svg">
<circle cx="18" cy="18" r="18" fill="#F0F5FF"/>
<path d="M23.6285 9.49132C20.1982 8.83623 16.6359 8.83623 13.2055 9.49132C11.6882 9.81887 9.77513 11.6531 9.44529 13.0944C8.85157 15.9113 8.85157 18.7937 9.44529 21.6106C9.8411 23.0518 11.7542 24.8861 13.2055 25.2136C13.2715 25.2136 13.3374 25.2791 13.3374 25.3447V29.4718C13.3374 29.6683 13.6013 29.7993 13.7332 29.6028L15.7123 27.572C15.7123 27.572 17.2955 25.9342 17.5594 25.6722C17.5594 25.6722 17.6254 25.6067 17.6914 25.6067C19.6704 25.6722 21.7154 25.4757 23.6945 25.1481C25.2118 24.8206 27.1249 22.9863 27.4547 21.5451C28.0484 18.7282 28.0484 15.8458 27.4547 13.0288C27.0589 11.6531 25.1458 9.81887 23.6285 9.49132ZM23.6945 21.8071C23.3647 22.4622 22.9689 22.9863 22.3092 23.3139C22.1113 23.3794 21.9134 23.4449 21.7154 23.5104C21.4516 23.4449 21.2537 23.3794 21.0558 23.3139C18.9448 22.4622 16.9657 21.2831 15.3825 19.5798C14.5249 18.5972 13.7992 17.4835 13.2055 16.3043C12.9416 15.7147 12.6777 15.1907 12.4798 14.6011C12.2819 14.077 12.6118 13.5529 12.9416 13.1599C13.2715 12.7668 13.6673 12.5048 14.1291 12.3082C14.4589 12.1117 14.7887 12.2427 15.0526 12.5048C15.5804 13.1599 16.1081 13.815 16.5039 14.5356C16.7678 14.9941 16.7018 15.5182 16.2401 15.8458C16.1081 15.9113 16.0421 15.9768 15.9102 16.1078C15.8442 16.1733 15.7123 16.2388 15.6463 16.3698C15.5144 16.5664 15.5144 16.7629 15.5804 16.9594C16.1081 18.4661 17.0976 19.6453 18.6149 20.3004C18.8788 20.4314 19.0767 20.4969 19.4065 20.4969C19.8683 20.4314 20.0662 19.9074 20.3961 19.6453C20.7259 19.3833 21.1217 19.3833 21.5175 19.5798C21.8474 19.7763 22.1772 20.0384 22.573 20.3004C22.9029 20.5625 23.2327 20.759 23.5626 21.021C23.7605 21.152 23.8264 21.4796 23.6945 21.8071ZM20.9238 16.8939C20.7919 16.8939 20.8579 16.8939 20.9238 16.8939C20.6599 16.8939 20.594 16.7629 20.528 16.5664C20.528 16.4353 20.528 16.2388 20.462 16.1078C20.3961 15.8458 20.2641 15.5837 20.0003 15.3872C19.8683 15.3217 19.7364 15.2562 19.6044 15.1907C19.4065 15.1252 19.2746 15.1252 19.0767 15.1252C18.8788 15.0596 18.8128 14.9286 18.8128 14.7321C18.8128 14.6011 19.0107 14.4701 19.1427 14.4701C20.1982 14.5356 20.9898 15.1252 21.1217 16.3698C21.1217 16.4353 21.1217 16.5664 21.1217 16.6319C21.1217 16.7629 21.0558 16.8939 20.9238 16.8939ZM20.2641 14.0115C19.9343 13.8805 19.6044 13.7494 19.2086 13.6839C19.0767 13.6839 18.8788 13.6184 18.7469 13.6184C18.549 13.6184 18.417 13.4874 18.483 13.2909C18.483 13.0944 18.6149 12.9633 18.8128 13.0288C19.4725 13.0944 20.0662 13.2254 20.6599 13.4874C21.8474 14.077 22.5071 15.0596 22.705 16.3698C22.705 16.4353 22.705 16.5009 22.705 16.5664C22.705 16.6974 22.705 16.8284 22.705 17.0249C22.705 17.0904 22.705 17.156 22.705 17.2215C22.639 17.4835 22.1772 17.549 22.1113 17.2215C22.1113 17.156 22.0453 17.0249 22.0453 16.9594C22.0453 16.3698 21.9134 15.7802 21.6495 15.2562C21.2537 14.6666 20.7919 14.2735 20.2641 14.0115ZM23.8264 17.9421C23.6285 17.9421 23.4966 17.7455 23.4966 17.549C23.4966 17.156 23.4306 16.7629 23.3647 16.3698C23.1008 14.2735 21.3856 12.5703 19.3406 12.2427C19.0107 12.1772 18.6809 12.1772 18.417 12.1117C18.2191 12.1117 17.9552 12.1117 17.8893 11.8497C17.8233 11.6531 18.0212 11.4566 18.2191 11.4566C18.2851 11.4566 18.351 11.4566 18.351 11.4566C18.483 11.4566 21.0558 11.5221 18.351 11.4566C21.1217 11.5221 23.4306 13.3564 23.8924 16.1078C23.9584 16.5664 24.0243 17.0249 24.0243 17.549C24.1563 17.7455 24.0243 17.9421 23.8264 17.9421Z" fill="#222222"/>
</svg>
