<svg width="48" height="48" viewBox="0 0 48 48" fill="none" xmlns="http://www.w3.org/2000/svg">
<circle cx="24" cy="24" r="24" fill="#F0F5FF"/>
<path d="M31.5047 12.6551C26.9309 11.7816 22.1812 11.7816 17.6073 12.6551C15.5843 13.0918 13.0335 15.5375 12.5937 17.4591C11.8021 21.215 11.8021 25.0583 12.5937 28.8141C13.1215 30.7358 15.6722 33.1814 17.6073 33.6182C17.6953 33.6182 17.7832 33.7055 17.7832 33.7929V39.2957C17.7832 39.5577 18.1351 39.7324 18.311 39.4704L20.9497 36.7626C20.9497 36.7626 23.0607 34.579 23.4126 34.2296C23.4126 34.2296 23.5005 34.1423 23.5885 34.1423C26.2272 34.2296 28.9539 33.9676 31.5927 33.5308C33.6157 33.0941 36.1665 30.6484 36.6063 28.7268C37.3979 24.9709 37.3979 21.1277 36.6063 17.3718C36.0785 15.5375 33.5278 13.0918 31.5047 12.6551ZM31.5927 29.0762C31.1529 29.9496 30.6251 30.6484 29.7456 31.0851C29.4817 31.1725 29.2178 31.2598 28.9539 31.3472C28.6021 31.2598 28.3382 31.1725 28.0743 31.0851C25.2597 29.9496 22.6209 28.3774 20.5099 26.1064C19.3665 24.7962 18.399 23.3113 17.6073 21.7391C17.2555 20.953 16.9037 20.2542 16.6398 19.4681C16.3759 18.7693 16.8157 18.0706 17.2555 17.5465C17.6953 17.0224 18.223 16.673 18.8387 16.411C19.2785 16.1489 19.7183 16.3236 20.0702 16.673C20.7738 17.5465 21.4775 18.4199 22.0052 19.3808C22.3571 19.9922 22.2691 20.6909 21.6534 21.1277C21.4775 21.215 21.3895 21.3024 21.2136 21.4771C21.1257 21.5644 20.9497 21.6518 20.8618 21.8264C20.6859 22.0885 20.6859 22.3505 20.7738 22.6126C21.4775 24.6215 22.7969 26.1938 24.8199 27.0672C25.1717 27.2419 25.4356 27.3293 25.8754 27.3293C26.4911 27.2419 26.755 26.5431 27.1948 26.1938C27.6346 25.8444 28.1623 25.8444 28.6901 26.1064C29.1298 26.3684 29.5696 26.7178 30.0974 27.0672C30.5372 27.4166 30.977 27.6786 31.4168 28.028C31.6806 28.2027 31.7686 28.6395 31.5927 29.0762ZM27.8984 22.5252C27.7225 22.5252 27.8105 22.5252 27.8984 22.5252C27.5466 22.5252 27.4586 22.3505 27.3707 22.0885C27.3707 21.9138 27.3707 21.6518 27.2827 21.4771C27.1948 21.1277 27.0189 20.7783 26.667 20.5163C26.4911 20.4289 26.3152 20.3416 26.1393 20.2542C25.8754 20.1669 25.6995 20.1669 25.4356 20.1669C25.1717 20.0795 25.0838 19.9048 25.0838 19.6428C25.0838 19.4681 25.3476 19.2934 25.5236 19.2934C26.9309 19.3808 27.9864 20.1669 28.1623 21.8264C28.1623 21.9138 28.1623 22.0885 28.1623 22.1758C28.1623 22.3505 28.0743 22.5252 27.8984 22.5252ZM27.0188 18.682C26.5791 18.5073 26.1393 18.3326 25.6115 18.2453C25.4356 18.2453 25.1717 18.1579 24.9958 18.1579C24.7319 18.1579 24.556 17.9832 24.644 17.7212C24.644 17.4591 24.8199 17.2844 25.0838 17.3718C25.9634 17.4591 26.755 17.6338 27.5466 17.9832C29.1298 18.7693 30.0094 20.0795 30.2733 21.8264C30.2733 21.9138 30.2733 22.0011 30.2733 22.0885C30.2733 22.2632 30.2733 22.4379 30.2733 22.6999C30.2733 22.7873 30.2733 22.8746 30.2733 22.9619C30.1853 23.3113 29.5696 23.3987 29.4817 22.9619C29.4817 22.8746 29.3937 22.6999 29.3937 22.6126C29.3937 21.8264 29.2178 21.0403 28.866 20.3416C28.3382 19.5554 27.7225 19.0314 27.0188 18.682ZM31.7686 23.9228C31.5047 23.9228 31.3288 23.6607 31.3288 23.3987C31.3288 22.8746 31.2408 22.3505 31.1529 21.8264C30.8011 19.0314 28.5141 16.7604 25.7874 16.3236C25.3476 16.2363 24.9079 16.2363 24.556 16.1489C24.2921 16.1489 23.9403 16.1489 23.8524 15.7996C23.7644 15.5375 24.0283 15.2755 24.2921 15.2755C24.3801 15.2755 24.4681 15.2755 24.4681 15.2755C24.644 15.2755 28.0743 15.3628 24.4681 15.2755C28.1623 15.3628 31.2408 17.8085 31.8565 21.4771C31.9445 22.0885 32.0325 22.6999 32.0325 23.3987C32.2084 23.6607 32.0325 23.9228 31.7686 23.9228Z" fill="#597EF7"/>
</svg>
