<svg width="96" height="96" viewBox="0 0 96 96" fill="none" xmlns="http://www.w3.org/2000/svg">
<path d="M84.75 36.2547L66.57 25.7547C66.105 25.4847 65.535 25.4847 65.07 25.7547L55.875 31.0647V16.4997C55.875 15.9597 55.59 15.4647 55.125 15.1947L36.93 4.69469C36.465 4.42469 35.895 4.42469 35.43 4.69469L17.25 15.1947C16.785 15.4647 16.5 15.9597 16.5 16.4997V37.4997C16.5 38.0397 16.785 38.5347 17.25 38.8047L33.18 47.9997L17.25 57.1947C16.785 57.4647 16.5 57.9597 16.5 58.4997V79.4997C16.5 80.0397 16.785 80.5347 17.25 80.8047L35.43 91.3047C35.655 91.4397 35.925 91.4997 36.18 91.4997C36.435 91.4997 36.705 91.4397 36.93 91.3047L55.11 80.8047C55.575 80.5347 55.86 80.0397 55.86 79.4997V65.0547L65.055 70.3647C65.28 70.4997 65.55 70.5597 65.805 70.5597C66.06 70.5597 66.33 70.4997 66.555 70.3647L84.735 59.8647C85.2 59.5947 85.485 59.0997 85.485 58.5597V37.5597C85.485 37.0197 85.2 36.5247 84.735 36.2547H84.75ZM52.875 32.7897L46.875 36.2547C46.41 36.5247 46.125 37.0197 46.125 37.5597V40.5297L37.68 45.4047V27.8697L52.86 19.0947V32.7897H52.875ZM39.195 47.9997L46.14 43.9947V52.0047L39.195 47.9997ZM36.195 7.72469L51.375 16.4997L36.195 25.2747L21.015 16.4997L36.195 7.72469ZM19.515 19.0947L34.695 27.8697V45.4047L19.515 36.6297V19.0947ZM34.695 87.4047L19.515 78.6297V61.0947L34.695 69.8697V87.4047ZM36.195 67.2747L21.015 58.4997L36.195 49.7247L51.375 58.4997L36.195 67.2747ZM52.875 78.6447L37.695 87.4197V69.8847L52.875 61.1097V78.6447ZM64.32 66.4647L55.875 61.5897V58.4997C55.875 57.9597 55.59 57.4647 55.125 57.1947L49.125 53.7297V40.1397L64.305 48.9147V66.4497L64.32 66.4647ZM65.82 46.3347L50.64 37.5597L65.82 28.7847L81 37.5597L65.82 46.3347ZM82.5 57.7047L67.32 66.4797V48.9447L82.5 40.1697V57.7047Z" fill="#D6E4FF"/>
</svg>
