<svg width="96" height="96" viewBox="0 0 96 96" fill="none" xmlns="http://www.w3.org/2000/svg">
<g clip-path="url(#clip0_335_5212)">
<path d="M95.5119 77.058C95.5104 76.1401 95.2603 75.2397 94.7885 74.4525L90.914 67.988V60.2207L91.6298 59.8436C93.7789 58.711 94.603 56.0508 93.4704 53.9017C92.7097 52.4581 91.2125 51.5543 89.5807 51.5537C88.1923 51.5541 86.8248 51.8918 85.5959 52.5376L59.5414 66.25C57.3915 67.3828 56.5668 70.044 57.6996 72.1938C58.4615 73.6399 59.9621 74.5445 61.5966 74.543C62.5593 74.5389 63.5143 74.3721 64.4212 74.0495L71.3333 78.658L74.7848 85.5548C75.7304 87.6066 77.9816 88.7183 80.1857 88.2215V94.467C80.1857 95.3133 80.872 95.9996 81.7183 95.9996H93.9793C94.8257 95.9996 95.5119 95.3133 95.5119 94.467V85.2713C95.5067 83.6204 94.9632 82.0166 93.9639 80.7025C94.9523 79.7475 95.5109 78.4323 95.5119 77.058ZM87.8488 67.5021L72.6023 75.8196L67.606 72.4892L87.8488 61.8345V67.5021ZM60.2617 70.1428C60.2619 69.6472 60.5361 69.1924 60.9744 68.9612L87.0289 55.2488C87.8162 54.8364 88.6917 54.6203 89.5807 54.6189C90.3171 54.6232 90.9106 55.2236 90.9064 55.9598C90.9035 56.4523 90.6295 56.9031 90.1937 57.1324L64.1392 70.8478C63.3545 71.2589 62.4825 71.4748 61.5966 71.4777C60.8596 71.477 60.2625 70.8798 60.2617 70.1428ZM77.5266 84.1862L74.5549 78.2458L88.8251 70.4631L92.1585 76.0204C92.6926 76.8997 92.4649 78.0415 91.6344 78.6488C90.4859 77.9754 89.1803 77.6164 87.8488 77.6082C83.7184 77.6193 80.3399 80.9022 80.2102 85.0306C79.2351 85.5295 78.0403 85.1534 77.5266 84.1862ZM92.4467 92.9343H83.251V85.2713C83.251 82.7319 85.3095 80.6734 87.8488 80.6734C90.3882 80.6734 92.4467 82.7319 92.4467 85.2713V92.9343Z" fill="#D6E4FF"/>
<path d="M86.3164 83.7393H89.3816V86.8045H86.3164V83.7393Z" fill="#D6E4FF"/>
<path d="M15.8157 94.467V88.2215C18.0189 88.7181 20.2695 87.6081 21.2167 85.5579L24.6681 78.6611L31.5802 74.0525C32.4873 74.3742 33.4423 74.5399 34.4048 74.543C36.835 74.5428 38.8048 72.5724 38.8046 70.1424C38.8044 68.5096 37.9001 67.0111 36.4555 66.25L10.401 52.5376C9.17336 51.8926 7.80761 51.5549 6.42078 51.5537C3.99159 51.5547 2.02294 53.5247 2.02371 55.9538C2.02428 57.5855 2.92814 59.0829 4.37167 59.8436L5.08741 60.2207V67.988L1.21142 74.4479C-0.00202796 76.471 0.340512 79.0638 2.0375 80.7025C1.03824 82.0166 0.494731 83.6204 0.489559 85.2713V94.467C0.489559 95.3133 1.17579 95.9996 2.02217 95.9996H14.2831C15.1295 95.9996 15.8157 95.3133 15.8157 94.467ZM6.42078 54.6189C7.30912 54.6205 8.18406 54.8366 8.97106 55.2488L35.0255 68.9612C35.6782 69.3041 35.9292 70.1112 35.5863 70.7639C35.357 71.2003 34.9056 71.4748 34.4125 71.4777C33.5251 71.4756 32.6513 71.2595 31.8653 70.8478L5.8108 57.1324C5.15906 56.7897 4.90847 55.9835 5.2512 55.3316C5.47995 54.8967 5.92939 54.6228 6.42078 54.6189ZM28.3954 72.4892L23.3991 75.8196L8.15264 67.5021V61.8314L28.3954 72.4892ZM3.84139 76.0235L7.17636 70.4631L21.4465 78.2458L18.4748 84.1877C17.9595 85.1531 16.7659 85.528 15.7912 85.0306C15.6615 80.9022 12.283 77.6193 8.15264 77.6082C6.82118 77.6164 5.51558 77.9754 4.36708 78.6488C3.53697 78.0427 3.30861 76.9024 3.84139 76.0235ZM12.7505 92.9343H3.55479V85.2713C3.55479 82.7319 5.61329 80.6734 8.15264 80.6734C10.692 80.6734 12.7505 82.7319 12.7505 85.2713V92.9343Z" fill="#D6E4FF"/>
<path d="M6.62012 83.7391H9.68535V86.8043H6.62012V83.7391Z" fill="#D6E4FF"/>
<path d="M10.0122 48.6437C9.8627 49.1753 10.1724 49.7274 10.704 49.877L11.7306 50.1659C12.2623 50.3156 12.8146 50.0058 12.9641 49.4741L20.5225 22.5999C20.7407 21.8239 21.7403 21.6119 22.2549 22.2324L45.48 50.2399C45.787 50.6101 45.7869 51.1464 45.4799 51.5166L36.73 62.0662C36.3775 62.4912 36.4362 63.1215 36.8611 63.4742L37.6821 64.1555C38.1073 64.5083 38.7379 64.4495 39.0906 64.0243L47.2304 54.2068C47.6303 53.7245 48.3701 53.7245 48.77 54.2068L56.9098 64.0243C57.2625 64.4495 57.8931 64.5083 58.3183 64.1555L59.1393 63.4742C59.5642 63.1215 59.6229 62.4912 59.2704 62.0662L50.5205 51.5166C50.2135 51.1464 50.2134 50.6101 50.5204 50.2399L73.7455 22.2324C74.2601 21.6119 75.2597 21.8239 75.4779 22.5999L83.0363 49.4741C83.1858 50.0058 83.7381 50.3156 84.2698 50.1659L85.2964 49.877C85.828 49.7274 86.1377 49.1753 85.9882 48.6437L77.4827 18.403C77.3937 18.0867 77.4658 17.7469 77.6756 17.494L89.9224 2.72569C90.275 2.30044 90.216 1.66981 89.7906 1.31734L88.9705 0.637776C88.5453 0.285503 87.9151 0.344464 87.5627 0.769488L77.5487 12.846C77.0341 13.4666 76.0344 13.2545 75.8162 12.4784L72.7361 1.52531C72.5866 0.99358 72.0343 0.683783 71.5026 0.833412L70.476 1.1223C69.9444 1.27189 69.6347 1.82405 69.7842 2.35564L73.8115 16.6755C73.9004 16.9918 73.8283 17.3316 73.6185 17.5846L48.7699 47.5484C48.3701 48.0306 47.6303 48.0306 47.2304 47.5484L22.3818 17.5846C22.1721 17.3316 22.1 16.9918 22.1889 16.6755L26.2162 2.35564C26.3657 1.82405 26.056 1.27189 25.5244 1.1223L24.4978 0.833412C23.9661 0.683783 23.4138 0.993579 23.2643 1.52531L20.1842 12.4784C19.966 13.2544 18.9663 13.4666 18.4517 12.846L8.43775 0.769488C8.08532 0.344465 7.45511 0.285503 7.02995 0.637776L6.20979 1.31734C5.7844 1.66981 5.7254 2.30044 6.07805 2.72569L18.3248 17.494C18.5346 17.7469 18.6067 18.0867 18.5177 18.403L10.0122 48.6437Z" fill="#D6E4FF"/>
</g>
<defs>
<clipPath id="clip0_335_5212">
<rect width="96" height="96" fill="white"/>
</clipPath>
</defs>
</svg>
