<svg width="96" height="96" viewBox="0 0 96 96" fill="none" xmlns="http://www.w3.org/2000/svg">
<g clip-path="url(#clip0_339_1367)">
<path d="M49.4116 20.6225C49.0539 19.8303 48.1219 19.4779 47.3297 19.8356C47.3196 19.8401 47.3096 19.8448 47.2998 19.8495C32.9653 26.4763 17.3657 29.9193 1.57377 29.9421C0.704654 29.9421 0 30.6468 0 31.5159C0 32.385 0.704654 33.0896 1.57377 33.0896C3.05311 33.0896 4.53402 33.0267 6.01336 32.9669L14.4787 44.254C14.7759 44.6501 15.2423 44.8835 15.7377 44.8835C15.7971 44.8835 15.8565 44.8803 15.9155 44.874C16.4695 44.8105 16.9485 44.4583 17.1745 43.9486L22.944 30.9682C24.8325 30.5999 26.7074 30.1839 28.5686 29.7202L39.9737 38.2736C40.6699 38.7942 41.656 38.6517 42.1766 37.9557C42.3398 37.7374 42.4435 37.4803 42.4776 37.2098L44.0513 24.6747C45.5889 24.0452 47.1202 23.4031 48.6247 22.7044C49.4169 22.3467 49.7692 21.4147 49.4116 20.6225ZM15.3899 40.2204L9.78096 32.7434C12.9285 32.5089 16.076 32.1643 19.1921 31.6638L15.3899 40.2204ZM39.6936 34.1283L32.4542 28.7004C35.2445 27.8994 37.9955 26.9693 40.7118 25.9621L39.6936 34.1283Z" fill="#D6E4FF"/>
<path d="M45.1758 59.5069L45.176 59.5072L45.1779 59.509L45.1758 59.5069Z" fill="#D6E4FF"/>
<path d="M45.1764 59.5071L35.7351 50.0659C35.1206 49.4515 34.1244 49.4515 33.5098 50.0659L19.7252 63.8489C16.9331 66.6416 16.5135 71.022 18.7243 74.294L10.3644 82.6539H1.57337C0.704261 82.6541 -0.00019668 83.3587 4.11909e-08 84.228C4.11909e-08 84.6453 0.165836 85.0452 0.46072 85.3403L9.90333 94.7829C10.5181 95.3974 11.5145 95.3973 12.129 94.7825C12.4239 94.4874 12.5897 94.0873 12.5897 93.6702V84.8792L20.9496 76.5162C24.222 78.7281 28.6036 78.3069 31.3947 75.5121L37.3073 69.601L45.1762 61.7322C45.7905 61.1177 45.7905 60.1217 45.1764 59.5071ZM9.44221 89.8712L5.37245 85.8014H9.44221V89.8712ZM29.1678 73.2915C27.1855 75.2794 23.9669 75.2841 21.979 73.3018C21.1111 72.4364 20.5851 71.2864 20.4979 70.0637H32.3956L29.1678 73.2915ZM35.5447 66.9162H21.2785C21.4737 66.6127 21.6993 66.3302 21.9521 66.0727L34.6225 53.4038L41.8398 60.6211L35.5447 66.9162Z" fill="#D6E4FF"/>
<path d="M95.8799 83.6249C95.6361 83.0369 95.0621 82.6537 94.4257 82.6539H85.6346L77.2716 74.294C79.483 71.0212 79.0624 66.64 76.2692 63.8474L62.4861 50.0659C61.8715 49.4515 60.8754 49.4515 60.2608 50.0659L50.8182 59.5085C50.2038 60.123 50.2038 61.1192 50.8182 61.7338L57.1133 68.0289L64.5981 75.5137C67.3898 78.3087 71.7719 78.7299 75.0448 76.5178L83.4093 84.8792V93.6702C83.4095 94.5394 84.1142 95.2438 84.9835 95.2436C85.4007 95.2436 85.8007 95.0778 86.0958 94.7829L95.5384 85.3403C95.9887 84.8902 96.1236 84.2131 95.8799 83.6249ZM54.1593 60.6211L61.3766 53.4038L73.3152 65.3424H58.8806L54.1593 60.6211ZM71.6342 74.642C69.9054 75.0616 68.083 74.5492 66.8266 73.2898H66.8297L62.0297 68.4898H75.3831C76.0469 71.224 74.3682 73.9785 71.6342 74.642ZM86.5569 89.8712V85.8014H90.6266L86.5569 89.8712Z" fill="#D6E4FF"/>
<path d="M92.8513 14.9819H72.9353C55.7758 14.9876 38.9644 10.1394 24.4428 0.997405C23.7067 0.534914 22.7351 0.757012 22.2726 1.49314C21.8101 2.22927 22.0322 3.20088 22.7683 3.66337C25.0912 5.12382 27.4755 6.46625 29.9007 7.71267V21.277C29.9007 22.1461 30.6053 22.8507 31.4744 22.8507C31.815 22.8507 32.1462 22.7404 32.4187 22.536L44.2597 13.6552C46.8501 14.483 49.473 15.1965 52.1286 15.7955L56.7523 28.1244C56.9474 28.6457 57.4034 29.025 57.9515 29.1222C58.043 29.1379 58.1356 29.1458 58.2285 29.1458C58.6876 29.1458 59.1239 28.9452 59.423 28.5966L68.4957 18.013C69.9719 18.0822 71.4513 18.1294 72.9353 18.1294H73.0927L80.5004 29.9799C80.9582 30.7188 81.9284 30.9464 82.6671 30.4886C82.8737 30.3606 83.0478 30.1865 83.1758 29.9799L90.5757 18.1294H92.8513C93.7205 18.1294 94.4251 17.4248 94.4251 16.5557C94.4251 15.6866 93.7205 14.9819 92.8513 14.9819ZM33.0482 18.1294V9.25654C35.541 10.4211 38.0732 11.4881 40.6511 12.4277L33.0482 18.1294ZM58.7667 24.5252L55.775 16.5557C58.6833 17.0939 61.6184 17.493 64.5802 17.7533L58.7667 24.5252ZM81.835 26.1761L76.7989 18.1294H86.871L81.835 26.1761Z" fill="#D6E4FF"/>
<path d="M47.2124 40.4769C46.3433 40.4769 45.6387 41.1816 45.6387 42.0507V46.772C45.6387 47.6411 46.3433 48.3458 47.2124 48.3458C48.0816 48.3458 48.7862 47.6411 48.7862 46.772V42.0507C48.7862 41.1816 48.0816 40.4769 47.2124 40.4769Z" fill="#D6E4FF"/>
<path d="M43.8541 47.2472L41.4935 43.1554C41.0589 42.4028 40.0964 42.1449 39.3437 42.5794C38.5911 43.014 38.3332 43.9765 38.7677 44.7292L41.1284 48.821C41.5679 49.5709 42.5322 49.8223 43.2819 49.3828C44.0247 48.9473 44.2797 47.9958 43.8541 47.2472Z" fill="#D6E4FF"/>
<path d="M43.2795 68.7008C42.5268 68.2663 41.5642 68.5242 41.1297 69.2768L38.769 73.3686C38.3296 74.1185 38.581 75.0827 39.3309 75.5221C40.0808 75.9616 41.0449 75.7102 41.4844 74.9603C41.4879 74.9544 41.4913 74.9483 41.4948 74.9422L43.8555 70.8504C44.29 70.098 44.0321 69.1354 43.2795 68.7008Z" fill="#D6E4FF"/>
<path d="M47.2124 69.749C46.3433 69.749 45.6387 70.4536 45.6387 71.3227V76.044C45.6387 76.9131 46.3433 77.6178 47.2124 77.6178C48.0816 77.6178 48.7862 76.9131 48.7862 76.044V71.3227C48.7862 70.4536 48.0816 69.749 47.2124 69.749Z" fill="#D6E4FF"/>
<path d="M55.6564 73.3686L53.2957 69.2768C52.8663 68.5212 51.9055 68.2568 51.1499 68.6863C50.3943 69.1157 50.1299 70.0765 50.5593 70.8321C50.5629 70.8382 50.5664 70.8443 50.5699 70.8504L52.9306 74.9422C53.2119 75.4297 53.7322 75.7297 54.295 75.7291C55.1642 75.7281 55.868 75.0228 55.8672 74.1537C55.8668 73.8781 55.7943 73.6074 55.6564 73.3686Z" fill="#D6E4FF"/>
<path d="M55.0969 42.5723C54.3472 42.1327 53.3829 42.3841 52.9432 43.1338C52.9397 43.1399 52.9361 43.146 52.9326 43.1521L50.5719 47.2439C50.1322 47.9936 50.3837 48.9579 51.1334 49.3976C51.8831 49.8372 52.8474 49.5858 53.2871 48.8361C53.2906 48.83 53.2941 48.8239 53.2977 48.8178L55.6583 44.726C56.098 43.9763 55.8466 43.012 55.0969 42.5723Z" fill="#D6E4FF"/>
<path d="M67.6725 82.6539C65.0649 82.6539 62.9512 84.7676 62.9512 87.3752C62.9512 89.9827 65.0649 92.0965 67.6725 92.0965C70.28 92.0965 72.3938 89.9827 72.3938 87.3752C72.3938 84.7676 70.28 82.6539 67.6725 82.6539ZM67.6725 88.9489C66.8034 88.9489 66.0987 88.2443 66.0987 87.3752C66.0987 86.5061 66.8034 85.8014 67.6725 85.8014C68.5416 85.8014 69.2462 86.5061 69.2462 87.3752C69.2462 88.2443 68.5416 88.9489 67.6725 88.9489Z" fill="#D6E4FF"/>
<path d="M15.7369 48.031C13.1294 48.031 11.0156 50.1448 11.0156 52.7523C11.0156 55.3598 13.1294 57.4736 15.7369 57.4736C18.3445 57.4736 20.4582 55.3598 20.4582 52.7523C20.4582 50.1448 18.3445 48.031 15.7369 48.031ZM15.7369 54.3261C14.8678 54.3261 14.1632 53.6214 14.1632 52.7523C14.1632 51.8832 14.8678 51.1785 15.7369 51.1785C16.606 51.1785 17.3107 51.8832 17.3107 52.7523C17.3107 53.6214 16.606 54.3261 15.7369 54.3261Z" fill="#D6E4FF"/>
<path d="M72.3618 36.5197C72.2306 35.6954 71.7774 34.9569 71.1016 34.4667H71.0954C69.6882 33.4461 67.72 33.7595 66.6994 35.1666C65.6788 36.5738 65.9922 38.542 67.3994 39.5626C67.9364 39.9521 68.5828 40.162 69.2462 40.1622C69.4144 40.1624 69.5822 40.1492 69.7482 40.1228C71.465 39.8496 72.6351 38.2363 72.3618 36.5197Z" fill="#D6E4FF"/>
<path d="M34.6221 87.3751C36.3605 87.3751 37.7697 85.9659 37.7697 84.2276C37.7697 82.4893 36.3605 81.0801 34.6221 81.0801C32.8838 81.0801 31.4746 82.4893 31.4746 84.2276C31.4746 85.9659 32.8838 87.3751 34.6221 87.3751Z" fill="#D6E4FF"/>
<path d="M83.4097 51.1785C82.5406 51.1785 81.8359 51.8832 81.8359 52.7523V54.3261C81.8359 55.1952 82.5406 55.8998 83.4097 55.8998C84.2788 55.8998 84.9835 55.1952 84.9835 54.3261V52.7523C84.9835 51.8832 84.2788 51.1785 83.4097 51.1785Z" fill="#D6E4FF"/>
<path d="M83.4097 43.3097C82.5406 43.3097 81.8359 44.0143 81.8359 44.8835V46.4572C81.8359 47.3263 82.5406 48.031 83.4097 48.031C84.2788 48.031 84.9835 47.3263 84.9835 46.4572V44.8835C84.9835 44.0143 84.2788 43.3097 83.4097 43.3097Z" fill="#D6E4FF"/>
<path d="M88.1319 48.031H86.5581C85.689 48.031 84.9844 48.7357 84.9844 49.6048C84.9844 50.4739 85.689 51.1785 86.5581 51.1785H88.1319C89.001 51.1785 89.7057 50.4739 89.7057 49.6048C89.7057 48.7357 89.001 48.031 88.1319 48.031Z" fill="#D6E4FF"/>
<path d="M80.2628 48.031H78.689C77.8199 48.031 77.1152 48.7357 77.1152 49.6048C77.1152 50.4739 77.8199 51.1785 78.689 51.1785H80.2628C81.1319 51.1785 81.8365 50.4739 81.8365 49.6048C81.8365 48.7357 81.1319 48.031 80.2628 48.031Z" fill="#D6E4FF"/>
<path d="M51.9351 90.5227C51.066 90.5227 50.3613 91.2274 50.3613 92.0965V93.6702C50.3613 94.5394 51.066 95.244 51.9351 95.244C52.8042 95.244 53.5089 94.5394 53.5089 93.6702V92.0965C53.5089 91.2274 52.8042 90.5227 51.9351 90.5227Z" fill="#D6E4FF"/>
<path d="M51.9351 82.6539C51.066 82.6539 50.3613 83.3585 50.3613 84.2276V85.8014C50.3613 86.6705 51.066 87.3752 51.9351 87.3752C52.8042 87.3752 53.5089 86.6705 53.5089 85.8014V84.2276C53.5089 83.3585 52.8042 82.6539 51.9351 82.6539Z" fill="#D6E4FF"/>
<path d="M56.6553 87.3752H55.0816C54.2125 87.3752 53.5078 88.0798 53.5078 88.949C53.5078 89.8181 54.2125 90.5227 55.0816 90.5227H56.6553C57.5245 90.5227 58.2291 89.8181 58.2291 88.949C58.2291 88.0798 57.5245 87.3752 56.6553 87.3752Z" fill="#D6E4FF"/>
<path d="M48.7862 87.3752H47.2124C46.3433 87.3752 45.6387 88.0798 45.6387 88.949C45.6387 89.8181 46.3433 90.5227 47.2124 90.5227H48.7862C49.6553 90.5227 50.36 89.8181 50.36 88.949C50.36 88.0798 49.6553 87.3752 48.7862 87.3752Z" fill="#D6E4FF"/>
</g>
<defs>
<clipPath id="clip0_339_1367">
<rect width="96" height="96" fill="white"/>
</clipPath>
</defs>
</svg>
