<svg width="1761" height="419" viewBox="0 0 1761 419" fill="none" xmlns="http://www.w3.org/2000/svg">
<path d="M891.027 320.858C874.415 320.858 860.457 317.862 849.155 311.87C837.989 305.879 829.615 297.913 824.032 287.973C818.449 278.032 815.657 267.207 815.657 255.496C815.657 243.513 818.04 233.3 822.806 224.858C827.708 216.279 834.313 209.266 842.619 203.819C851.061 198.373 860.798 194.219 871.827 191.36C882.993 188.636 895.317 186.254 908.798 184.211C922.415 182.032 935.691 180.194 948.627 178.696C961.7 177.062 973.138 175.496 982.942 173.998L972.321 180.534C972.729 158.747 968.508 142.611 959.657 132.126C950.806 121.641 935.419 116.398 913.495 116.398C898.381 116.398 885.581 119.803 875.096 126.611C864.747 133.42 857.461 144.177 853.24 158.883L824.032 150.305C829.07 130.56 839.215 115.241 854.466 104.347C869.717 93.4536 889.53 88.0068 913.904 88.0068C934.057 88.0068 951.146 91.8196 965.172 99.4451C979.334 106.934 989.342 117.828 995.197 132.126C997.921 138.526 999.691 145.675 1000.51 153.573C1001.33 161.471 1001.73 169.505 1001.73 177.675V314.73H974.976V259.377L982.738 262.645C975.249 281.573 963.606 296.007 947.81 305.947C932.015 315.887 913.087 320.858 891.027 320.858ZM894.5 294.917C908.525 294.917 920.781 292.398 931.266 287.36C941.751 282.321 950.193 275.445 956.593 266.73C962.993 257.879 967.146 247.939 969.053 236.909C970.687 229.828 971.572 222.066 971.708 213.624C971.844 205.045 971.912 198.645 971.912 194.424L983.351 200.347C973.138 201.709 962.04 203.071 950.057 204.432C938.21 205.794 926.5 207.36 914.925 209.13C903.487 210.9 893.138 213.011 883.879 215.462C877.615 217.232 871.555 219.751 865.7 223.019C859.845 226.151 855.01 230.373 851.198 235.683C847.521 240.994 845.683 247.598 845.683 255.496C845.683 261.896 847.249 268.092 850.381 274.083C853.649 280.075 858.823 285.045 865.904 288.994C873.121 292.943 882.653 294.917 894.5 294.917Z" fill="white"/>
<path d="M673.783 418.9C662.481 418.9 651.315 417.198 640.285 413.794C629.392 410.526 619.315 405.283 610.056 398.066C600.796 390.985 593.034 381.726 586.771 370.287L613.937 355.172C620.064 367.428 628.643 376.211 639.673 381.521C650.839 386.968 662.209 389.691 673.783 389.691C689.715 389.691 702.583 386.696 712.388 380.704C722.328 374.849 729.545 366.134 734.039 354.56C738.532 342.985 740.711 328.551 740.575 311.258V252.432H744.047V94.1345H770.804V311.666C770.804 317.93 770.6 323.921 770.192 329.641C769.919 335.496 769.307 341.215 768.353 346.798C765.766 363.275 760.387 376.823 752.217 387.445C744.183 398.066 733.562 405.964 720.353 411.138C707.281 416.313 691.758 418.9 673.783 418.9ZM671.741 320.858C651.179 320.858 633.613 315.751 619.043 305.538C604.473 295.189 593.307 281.232 585.545 263.666C577.783 246.1 573.903 226.287 573.903 204.228C573.903 182.305 577.715 162.56 585.341 144.994C593.103 127.428 604.2 113.539 618.634 103.326C633.068 93.1132 650.362 88.0068 670.515 88.0068C691.213 88.0068 708.643 93.0451 722.805 103.122C736.966 113.198 747.656 127.02 754.873 144.585C762.226 162.015 765.902 181.896 765.902 204.228C765.902 226.151 762.294 245.964 755.077 263.666C747.86 281.232 737.239 295.189 723.213 305.538C709.188 315.751 692.03 320.858 671.741 320.858ZM674.805 292.875C690.464 292.875 703.4 289.062 713.613 281.436C723.826 273.811 731.451 263.326 736.49 249.981C741.528 236.5 744.047 221.249 744.047 204.228C744.047 186.934 741.528 171.683 736.49 158.475C731.451 145.13 723.826 134.713 713.613 127.224C703.536 119.734 690.805 115.99 675.417 115.99C659.622 115.99 646.549 119.871 636.2 127.632C625.851 135.394 618.158 145.947 613.12 159.292C608.217 172.636 605.766 187.615 605.766 204.228C605.766 220.977 608.286 236.092 613.324 249.573C618.498 262.917 626.192 273.47 636.405 281.232C646.617 288.994 659.417 292.875 674.805 292.875Z" fill="white"/>
<path d="M494.899 314.73V14.4751H524.924V314.73H494.899Z" fill="white"/>
<path d="M341.176 320.858C319.253 320.858 300.529 315.887 285.006 305.947C269.482 296.007 257.568 282.253 249.261 264.687C240.955 247.122 236.802 226.968 236.802 204.228C236.802 181.079 241.023 160.79 249.466 143.36C257.908 125.93 269.891 112.381 285.414 102.713C301.074 92.9089 319.661 88.0068 341.176 88.0068C363.236 88.0068 382.027 92.977 397.55 102.917C413.21 112.722 425.125 126.407 433.295 143.973C441.601 161.402 445.755 181.488 445.755 204.228C445.755 227.377 441.601 247.734 433.295 265.3C424.989 282.73 413.006 296.347 397.346 306.151C381.687 315.955 362.963 320.858 341.176 320.858ZM341.176 292.058C365.687 292.058 383.933 283.956 395.916 267.751C407.899 251.411 413.891 230.236 413.891 204.228C413.891 177.539 407.831 156.296 395.712 140.5C383.729 124.705 365.55 116.807 341.176 116.807C324.699 116.807 311.082 120.551 300.325 128.041C289.704 135.394 281.738 145.675 276.427 158.883C271.253 171.956 268.665 187.071 268.665 204.228C268.665 230.781 274.793 252.092 287.048 268.16C299.304 284.092 317.346 292.058 341.176 292.058Z" fill="white"/>
<path d="M101.608 314.73L0.297485 20.603H31.5485L121.216 280.62L211.497 20.603H242.748L141.438 314.73H101.608Z" fill="white"/>
<path d="M1156.62 178.888L1136.78 272.323C1132.23 293.821 1137.6 304.57 1153.73 304.57H1170.26L1168.2 314.906H1050.78L1052.85 304.57H1068.97C1085.51 304.57 1095.85 293.821 1100.4 272.323L1143.81 68.5025C1148.35 47.0042 1142.57 35.8417 1126.03 35.8417H1109.9L1112.38 25.5059H1229.8L1227.32 35.8417H1210.78C1194.66 35.8417 1184.74 47.0042 1180.19 68.5025L1160.34 161.111H1310.83L1330.68 68.5025C1335.22 47.0042 1329.44 35.8417 1312.9 35.8417H1296.77L1299.25 25.5059H1416.67L1414.19 35.8417H1397.65C1381.53 35.8417 1371.6 47.0042 1367.06 68.5025L1323.65 272.323C1319.1 293.821 1324.47 304.57 1340.6 304.57H1357.13L1355.07 314.906H1237.65L1239.72 304.57H1255.84C1272.38 304.57 1282.72 293.821 1287.27 272.323L1307.11 178.888H1156.62Z" fill="white"/>
<path d="M1505.66 276.044C1485.81 305.811 1465.14 316.973 1445.71 316.973C1409.33 316.973 1381.22 273.977 1390.31 218.164C1398.58 165.245 1434.55 119.354 1477.96 119.354C1503.59 119.354 1523.44 135.065 1532.95 158.63L1555.68 121.421H1563.95L1533.77 264.054C1527.57 292.994 1530.05 302.917 1541.21 302.917C1544.93 302.917 1549.48 301.263 1554.44 297.542L1555.27 307.464C1545.35 313.666 1538.73 315.733 1528.81 315.733C1513.1 315.733 1503.59 302.917 1505.66 276.044ZM1510.21 226.019C1516.82 193.358 1518.48 133.411 1480.03 133.411C1446.54 133.411 1430 178.888 1424.63 212.376C1418.43 249.998 1422.15 303.33 1456.46 303.33C1480.44 303.33 1499.46 276.871 1510.21 226.019Z" fill="white"/>
<path d="M1671.77 0.700195L1615.55 264.054C1609.35 292.994 1611.83 302.917 1622.99 302.917C1626.71 302.917 1631.26 301.263 1636.22 297.542L1637.05 307.464C1627.12 313.666 1620.51 315.733 1610.59 315.733C1594.88 315.733 1576.27 301.263 1584.95 260.334L1632.08 37.9088C1635.39 22.6119 1627.54 16.8239 1611.83 16.8239H1603.14L1605.21 7.72849C1640.35 7.31507 1652.76 5.66135 1663.09 1.52707L1671.77 0.700195Z" fill="white"/>
<path d="M1761 0.700195L1704.77 264.054C1698.57 292.994 1701.05 302.917 1712.22 302.917C1715.94 302.917 1720.48 301.263 1725.45 297.542L1726.27 307.464C1716.35 313.666 1709.73 315.733 1699.81 315.733C1684.1 315.733 1665.5 301.263 1674.18 260.334L1721.31 37.9088C1724.62 22.6119 1716.76 16.8239 1701.05 16.8239H1692.37L1694.44 7.72849C1729.58 7.31507 1741.98 5.66135 1752.32 1.52707L1761 0.700195Z" fill="white"/>
</svg>
