<svg width="149" height="38" viewBox="0 0 149 38" fill="none" xmlns="http://www.w3.org/2000/svg">
<g opacity="0.98">
<path d="M29.9828 33.3728C29.5333 33.3728 29.1535 33.2739 28.8456 33.0738C28.5355 32.8737 28.3018 32.5971 28.1445 32.2441C27.9849 31.8911 27.9062 31.4818 27.9062 31.0209C27.9062 30.56 27.9849 30.1507 28.1445 29.7977C28.304 29.4447 28.5378 29.1681 28.8456 28.968C29.1558 28.7679 29.5333 28.6689 29.9828 28.6689C30.5087 28.6689 30.9357 28.8039 31.2683 29.0714C31.6009 29.339 31.8279 29.701 31.9515 30.153L31.4818 30.2744C31.3852 29.9169 31.2121 29.6336 30.9649 29.4244C30.7177 29.2153 30.3896 29.1097 29.9828 29.1097C29.63 29.1097 29.3356 29.1906 29.1018 29.3502C28.8681 29.5121 28.6928 29.7347 28.5737 30.0226C28.4546 30.3104 28.3939 30.6409 28.3894 31.0186C28.3894 31.3942 28.4456 31.7269 28.5625 32.0125C28.6793 32.2981 28.8591 32.5229 29.0951 32.6848C29.3311 32.8467 29.6277 32.9276 29.9806 32.9276C30.3851 32.9276 30.7132 32.822 30.9627 32.6128C31.2121 32.4015 31.3852 32.1204 31.4796 31.7652L31.9493 31.8866C31.8256 32.3385 31.5987 32.6983 31.2661 32.9681C30.9334 33.2379 30.5064 33.3706 29.9806 33.3706L29.9828 33.3728Z" fill="#222222"/>
<path d="M36.35 33.3728C35.9005 33.3728 35.5207 33.2739 35.2128 33.0738C34.9027 32.8737 34.669 32.5971 34.5117 32.2441C34.3521 31.8911 34.2734 31.4818 34.2734 31.0209C34.2734 30.56 34.3521 30.1507 34.5117 29.7977C34.6712 29.4447 34.9049 29.1681 35.2128 28.968C35.523 28.7679 35.9005 28.6689 36.35 28.6689C36.7995 28.6689 37.1815 28.7679 37.4894 28.968C37.7973 29.1681 38.031 29.4447 38.1906 29.7977C38.3502 30.1507 38.4311 30.56 38.4311 31.0209C38.4311 31.4818 38.3502 31.8911 38.1906 32.2441C38.031 32.5971 37.7973 32.8737 37.4894 33.0738C37.1815 33.2739 36.8017 33.3728 36.35 33.3728ZM36.35 32.9299C36.7028 32.9299 36.9972 32.8489 37.2355 32.6893C37.4714 32.5274 37.649 32.3048 37.7658 32.017C37.8849 31.7292 37.9434 31.3987 37.9434 31.0209C37.9434 30.6431 37.8849 30.3126 37.7658 30.0271C37.6467 29.7415 37.4714 29.5166 37.2355 29.3547C36.9995 29.1929 36.7051 29.1119 36.35 29.1097C35.9972 29.1097 35.7028 29.1906 35.469 29.3502C35.2353 29.5121 35.06 29.7347 34.9409 30.0226C34.8218 30.3104 34.7634 30.6409 34.7611 31.0186C34.7611 31.3942 34.8173 31.7269 34.9364 32.0125C35.0533 32.2981 35.2308 32.5207 35.4668 32.6848C35.7028 32.8489 35.9972 32.9299 36.35 32.9299Z" fill="#222222"/>
<path d="M40.9414 33.278V28.7607H41.4044L43.8899 32.4618V28.7607H44.3529V33.278H43.8899L41.4044 29.5725V33.278H40.9414Z" fill="#222222"/>
<path d="M47.1133 33.278V28.7607H49.7067V29.2217H47.574V30.7912H49.3292V31.2499H47.574V33.2803H47.1133V33.278Z" fill="#222222"/>
<path d="M52.1523 33.278V28.7607H54.9728V29.2037H52.613V30.7664H54.5975V31.2094H52.613V32.8373H54.9728V33.2803H52.1523V33.278Z" fill="#222222"/>
<path d="M57.6055 33.278V28.7607H59.3494C59.3944 28.7607 59.4438 28.7607 59.4977 28.7652C59.5517 28.7697 59.6079 28.7742 59.6663 28.7855C59.9023 28.8215 60.1023 28.9024 60.2663 29.0306C60.4304 29.1587 60.554 29.3206 60.6394 29.5162C60.7248 29.7096 60.7653 29.9255 60.7653 30.1616C60.7653 30.5033 60.6754 30.7979 60.4956 31.0497C60.3158 31.3016 60.0596 31.459 59.7247 31.5242L59.5652 31.5624H58.0662V33.278H57.6055ZM58.0662 31.1239H59.3359C59.3741 31.1239 59.4168 31.1239 59.4685 31.1172C59.5202 31.1104 59.5674 31.1059 59.6169 31.0947C59.7719 31.061 59.8978 30.998 59.9989 30.9036C60.0978 30.8091 60.172 30.6967 60.2214 30.5686C60.2708 30.4381 60.2956 30.3032 60.2956 30.1638C60.2956 30.0244 60.2708 29.8895 60.2214 29.7568C60.172 29.6264 60.0978 29.514 59.9989 29.4196C59.9 29.3251 59.7719 29.2622 59.6169 29.2284C59.5697 29.2172 59.5202 29.2104 59.4685 29.2082C59.4191 29.2059 59.3741 29.2037 59.3359 29.2037H58.0662V31.1239ZM60.3405 33.278L59.4506 31.441L59.8933 31.2723L60.8709 33.2803H60.3405V33.278Z" fill="#222222"/>
<path d="M63.4453 33.278V28.7607H66.2658V29.2037H63.906V30.7664H65.8904V31.2094H63.906V32.8373H66.2658V33.2803H63.4453V33.278Z" fill="#222222"/>
<path d="M68.8984 33.278V28.7607H69.3614L71.847 32.4618V28.7607H72.3099V33.278H71.847L69.3614 29.5725V33.278H68.8984Z" fill="#222222"/>
<path d="M76.8969 33.3728C76.4474 33.3728 76.0676 33.2739 75.7597 33.0738C75.4496 32.8737 75.2158 32.5971 75.0585 32.2441C74.899 31.8911 74.8203 31.4818 74.8203 31.0209C74.8203 30.56 74.899 30.1507 75.0585 29.7977C75.2181 29.4447 75.4518 29.1681 75.7597 28.968C76.0698 28.7679 76.4474 28.6689 76.8969 28.6689C77.4228 28.6689 77.8498 28.8039 78.1824 29.0714C78.515 29.339 78.742 29.701 78.8656 30.153L78.3959 30.2744C78.2992 29.9169 78.1262 29.6336 77.879 29.4244C77.6318 29.2153 77.3037 29.1097 76.8969 29.1097C76.544 29.1097 76.2496 29.1906 76.0159 29.3502C75.7822 29.5121 75.6069 29.7347 75.4878 30.0226C75.3687 30.3104 75.308 30.6409 75.3035 31.0186C75.3035 31.3942 75.3597 31.7269 75.4765 32.0125C75.5934 32.2981 75.7732 32.5229 76.0092 32.6848C76.2451 32.8467 76.5418 32.9276 76.8946 32.9276C77.2992 32.9276 77.6273 32.822 77.8767 32.6128C78.1262 32.4015 78.2992 32.1204 78.3936 31.7652L78.8633 31.8866C78.7397 32.3385 78.5127 32.6983 78.1801 32.9681C77.8475 33.2379 77.4205 33.3706 76.8946 33.3706L76.8969 33.3728Z" fill="#222222"/>
<path d="M81.4375 33.278V28.7607H84.2602V29.2037H81.8982V30.7664H83.8826V31.2094H81.8982V32.8373H84.2602V33.2803H81.4375V33.278Z" fill="#222222"/>
<path d="M91.8578 33.3728C91.4083 33.3728 91.0285 33.2739 90.7207 33.0738C90.4105 32.8737 90.1768 32.5971 90.0195 32.2441C89.8599 31.8911 89.7812 31.4818 89.7812 31.0209C89.7812 30.56 89.8599 30.1507 90.0195 29.7977C90.179 29.4447 90.4128 29.1681 90.7207 28.968C91.0308 28.7679 91.4083 28.6689 91.8578 28.6689C92.3837 28.6689 92.8107 28.8039 93.1433 29.0714C93.4759 29.339 93.7029 29.701 93.8265 30.153L93.3568 30.2744C93.2602 29.9169 93.0871 29.6336 92.8399 29.4244C92.5927 29.2153 92.2646 29.1097 91.8578 29.1097C91.505 29.1097 91.2106 29.1906 90.9768 29.3502C90.7431 29.5121 90.5678 29.7347 90.4487 30.0226C90.3296 30.3104 90.2689 30.6409 90.2644 31.0186C90.2644 31.3942 90.3206 31.7269 90.4375 32.0125C90.5543 32.2981 90.7341 32.5229 90.9701 32.6848C91.2061 32.8467 91.5027 32.9276 91.8556 32.9276C92.2601 32.9276 92.5882 32.822 92.8377 32.6128C93.0871 32.4015 93.2602 32.1204 93.3546 31.7652L93.8242 31.8866C93.7006 32.3385 93.4737 32.6983 93.1411 32.9681C92.8084 33.2379 92.3814 33.3706 91.8556 33.3706L91.8578 33.3728Z" fill="#222222"/>
<path d="M96.3984 33.278V28.7607H99.2211V29.2037H96.8591V30.7664H98.8436V31.2094H96.8591V32.8373H99.2211V33.2803H96.3984V33.278Z" fill="#222222"/>
<path d="M101.852 33.278V28.7607H102.315L104.8 32.4618V28.7607H105.263V33.278H104.8L102.315 29.5725V33.278H101.852Z" fill="#222222"/>
<path d="M109.226 33.278V29.2037H107.648V28.7607H111.262V29.2037H109.685V33.278H109.224H109.226Z" fill="#222222"/>
<path d="M113.648 33.278V28.7607H116.469V29.2037H114.109V30.7664H116.094V31.2094H114.109V32.8373H116.469V33.2803H113.648V33.278Z" fill="#222222"/>
<path d="M119.102 33.278V28.7607H120.846C120.89 28.7607 120.94 28.7607 120.994 28.7652C121.048 28.7697 121.104 28.7742 121.162 28.7855C121.398 28.8215 121.598 28.9024 121.762 29.0306C121.926 29.1587 122.05 29.3206 122.135 29.5162C122.221 29.7096 122.261 29.9255 122.261 30.1616C122.261 30.5033 122.171 30.7979 121.992 31.0497C121.812 31.3016 121.556 31.459 121.221 31.5242L121.061 31.5624H119.562V33.278H119.102ZM119.562 31.1239H120.832C120.87 31.1239 120.913 31.1239 120.965 31.1172C121.016 31.1104 121.063 31.1059 121.113 31.0947C121.268 31.061 121.394 30.998 121.495 30.9036C121.594 30.8091 121.668 30.6967 121.717 30.5686C121.767 30.4381 121.792 30.3032 121.792 30.1638C121.792 30.0244 121.767 29.8895 121.717 29.7568C121.668 29.6264 121.594 29.514 121.495 29.4196C121.396 29.3251 121.268 29.2622 121.113 29.2284C121.066 29.2172 121.016 29.2104 120.965 29.2082C120.915 29.2059 120.87 29.2037 120.832 29.2037H119.562V31.1239ZM121.837 33.278L120.947 31.441L121.389 31.2723L122.367 33.2803H121.837V33.278Z" fill="#222222"/>
</g>
<g opacity="0.98">
<path d="M74.6918 12.6902C73.467 12.3619 72.1433 12.3461 70.8376 12.7059C69.6083 13.0432 68.5363 13.6773 67.6778 14.507C67.5992 14.5834 67.8329 16 67.8823 15.9123C68.1161 15.4873 68.2599 14.878 68.624 14.5519C69.0869 14.136 69.66 13.8144 70.3477 13.6256C71.4197 13.331 72.4849 13.4322 73.476 13.8099C74.0042 14.0101 74.4312 14.7318 74.9256 15.5188L74.6896 12.6947L74.6918 12.6902Z" fill="#222222"/>
<path d="M68.0149 15.575L67.1565 17.7471C66.5452 19.2851 66.7272 20.099 68.3992 20.099H68.7386V20.6634H63.3359V20.099H63.9023C64.8057 20.099 65.417 19.4875 65.8912 18.3115L71.2039 5.05644C71.3163 4.76189 71.4984 4.60449 71.6781 4.60449C71.8579 4.60449 72.0624 4.76189 72.1973 5.07893L77.6921 18.3115C78.1887 19.4875 79.027 20.099 80.0203 20.099H80.3372V20.6634H73.7569V20.099H74.1412C75.5661 20.099 75.9504 19.3975 75.4762 18.1766L73.6446 13.5626L71.2039 7.38816L68.8083 13.5176L68.0172 15.575H68.0149Z" fill="#222222"/>
</g>
<g opacity="0.98">
<path d="M113.731 12.6902C112.506 12.3619 111.182 12.3461 109.877 12.7059C108.647 13.0432 107.575 13.6773 106.717 14.507C106.638 14.5834 106.872 16 106.921 15.9123C107.155 15.4873 107.299 14.878 107.663 14.5519C108.126 14.136 108.699 13.8144 109.387 13.6256C110.459 13.331 111.524 13.4322 112.515 13.8099C113.043 14.0101 113.47 14.7318 113.965 15.5188L113.729 12.6947L113.731 12.6902Z" fill="#222222"/>
<path d="M107.054 15.575L106.196 17.7471C105.584 19.2851 105.766 20.099 107.438 20.099H107.778V20.6634H102.375V20.099H102.941C103.845 20.099 104.456 19.4875 104.93 18.3115L110.243 5.05644C110.355 4.76189 110.537 4.60449 110.717 4.60449C110.897 4.60449 111.101 4.76189 111.236 5.07893L116.731 18.3115C117.228 19.4875 118.066 20.099 119.059 20.099H119.376V20.6634H112.796V20.099H113.18C114.605 20.099 114.989 19.3975 114.515 18.1766L112.684 13.5626L110.243 7.38816L107.847 13.5176L107.056 15.575H107.054Z" fill="#222222"/>
</g>
<g opacity="0.98">
<path d="M4.67578 5.39836V4.83398H11.2561V5.39836H10.8718C9.44693 5.39836 9.04016 6.0999 9.53907 7.32085L13.6765 17.41L17.5419 7.75032C18.1532 6.21233 17.9712 5.39836 16.2991 5.39836H15.9598V4.83398H21.3624V5.39836H20.7961C19.8927 5.39836 19.2814 6.00996 18.8072 7.18594L13.245 20.6681H12.8831L7.32093 7.18594C6.84673 6.00996 5.98599 5.39836 4.99266 5.39836H4.67578Z" fill="#222222"/>
</g>
<g opacity="0.98">
<path d="M39.544 18.3142V7.1615C39.544 5.98552 39.1148 5.39641 38.2091 5.39641H37.3281V4.83203H43.7488V5.39641H42.8454C41.9644 5.39641 41.5329 5.98552 41.5329 7.1615V18.3142C41.5329 19.4677 41.9622 20.0568 42.8454 20.0568H43.7264C46.4839 20.0568 47.5244 19.5823 48.3155 17.9971L48.4953 17.6351H49.0616L48.248 20.6661H37.3281V20.1017H38.2091C39.1125 20.1017 39.544 19.4901 39.544 18.3142Z" fill="#222222"/>
</g>
<g opacity="0.98">
<path d="M58.0306 13.7898V13.2254H64.2018V13.7898H63.7726C62.8916 13.7898 62.4624 14.4014 62.4624 15.5773V19.0603C60.6308 20.5533 58.552 20.9603 56.9676 20.9603C52.1065 20.9603 48.4883 17.2502 48.4883 12.7487C48.4883 8.24717 52.174 4.53711 56.6282 4.53711C58.1205 4.53711 59.0936 4.94409 59.6352 4.94409C60.042 4.94409 60.042 4.87664 60.3364 4.58208H60.6757L61.6713 8.24717H61.105L60.9252 7.88516C59.9745 5.98516 58.0755 5.37356 56.381 5.37356C52.4931 5.37356 50.6615 8.63167 50.6615 11.7301C50.6615 15.4852 53.3066 20.1216 57.626 20.1216C58.7789 20.1216 59.7521 19.7821 60.4757 19.148V15.5728C60.4757 14.3969 59.9094 13.7853 58.689 13.7853H58.0328L58.0306 13.7898Z" fill="#222222"/>
</g>
<g opacity="0.98">
<path d="M89.2868 18.3366C89.2868 19.5126 89.7161 20.1017 90.5993 20.1017H91.5027V20.6661H85.082V20.1017H85.963C86.8664 20.1017 87.2979 19.5126 87.2979 18.3366V7.18398C87.2979 6.00801 86.8687 5.39641 85.963 5.39641H85.082V4.83203H91.5027V5.39641H90.5993C89.7183 5.39641 89.2868 6.00801 89.2868 7.18398V12.2499H97.5167V7.18398C97.5167 6.00801 97.0874 5.39641 96.1817 5.39641H95.3008V4.83203H101.721V5.39641H100.816C99.9348 5.39641 99.5056 6.00801 99.5056 7.18398V18.3366C99.5056 19.5126 99.9348 20.1017 100.816 20.1017H101.721V20.6661H95.3008V20.1017H96.1817C97.0874 20.1017 97.5167 19.5126 97.5167 18.3366V13.2235H89.2868V18.3366Z" fill="#222222"/>
</g>
<g opacity="0.98">
<path d="M122.081 18.3142V7.1615C122.081 5.98552 121.652 5.39641 120.747 5.39641H119.866V4.83203H126.286V5.39641H125.381C124.5 5.39641 124.07 5.98552 124.07 7.1615V18.3142C124.07 19.4677 124.5 20.0568 125.381 20.0568H126.262C129.019 20.0568 130.06 19.5823 130.851 17.9971L131.03 17.6351H131.597L130.783 20.6661H119.863V20.1017H120.744C121.65 20.1017 122.079 19.4901 122.079 18.3142H122.081Z" fill="#222222"/>
</g>
<g opacity="0.98">
<path d="M134.81 18.3142V7.1615C134.81 5.98552 134.38 5.39641 133.475 5.39641H132.594V4.83203H139.014V5.39641H138.111C137.23 5.39641 136.801 5.98552 136.801 7.1615V18.3142C136.801 19.4677 137.23 20.0568 138.111 20.0568H138.992C141.749 20.0568 142.79 19.5823 143.581 17.9971L143.761 17.6351H144.327L143.514 20.6661H132.594V20.1017H133.475C134.378 20.1017 134.81 19.4901 134.81 18.3142Z" fill="#222222"/>
</g>
<path d="M28.4241 4.55957C32.7908 4.55957 36.3482 8.11382 36.3482 12.4766C36.3482 16.8395 32.7908 20.3937 28.4241 20.3937C24.0574 20.3937 20.5 16.8162 20.5 12.4766C20.5 8.13709 24.0574 4.55957 28.4241 4.55957ZM29.1665 19.5852C32.4852 19.5852 34.2522 16.4439 34.2522 13.4772C34.2522 9.85604 31.6118 5.36524 27.6614 5.36524C24.366 5.36524 22.596 8.50647 22.596 11.4936C22.596 15.1147 25.216 19.5852 29.1665 19.5852Z" fill="#222222"/>
</svg>
