<svg width="149" height="38" viewBox="0 0 149 38" fill="none" xmlns="http://www.w3.org/2000/svg">
<g opacity="0.98">
<path d="M29.982 33.3724C29.5325 33.3724 29.1527 33.2734 28.8449 33.0733C28.5347 32.8732 28.301 32.5966 28.1437 32.2436C27.9841 31.8906 27.9055 31.4814 27.9055 31.0204C27.9055 30.5595 27.9841 30.1502 28.1437 29.7972C28.3032 29.4442 28.537 29.1676 28.8449 28.9675C29.155 28.7674 29.5325 28.6685 29.982 28.6685C30.5079 28.6685 30.9349 28.8034 31.2675 29.0709C31.6001 29.3385 31.8271 29.7005 31.9507 30.1525L31.481 30.2739C31.3844 29.9164 31.2113 29.6331 30.9641 29.424C30.7169 29.2148 30.3888 29.1092 29.982 29.1092C29.6292 29.1092 29.3348 29.1901 29.1011 29.3498C28.8673 29.5117 28.692 29.7343 28.5729 30.0221C28.4538 30.3099 28.3931 30.6404 28.3886 31.0182C28.3886 31.3937 28.4448 31.7264 28.5617 32.012C28.6785 32.2976 28.8583 32.5224 29.0943 32.6843C29.3303 32.8462 29.6269 32.9272 29.9798 32.9272C30.3843 32.9272 30.7124 32.8215 30.9619 32.6124C31.2113 32.401 31.3844 32.1199 31.4788 31.7647L31.9485 31.8861C31.8249 32.338 31.5979 32.6978 31.2653 32.9676C30.9327 33.2374 30.5057 33.3701 29.9798 33.3701L29.982 33.3724Z" fill="white"/>
<path d="M36.351 33.3724C35.9016 33.3724 35.5218 33.2734 35.2139 33.0733C34.9037 32.8732 34.67 32.5966 34.5127 32.2436C34.3531 31.8906 34.2745 31.4814 34.2745 31.0204C34.2745 30.5595 34.3531 30.1502 34.5127 29.7972C34.6723 29.4442 34.906 29.1676 35.2139 28.9675C35.524 28.7674 35.9016 28.6685 36.351 28.6685C36.8005 28.6685 37.1826 28.7674 37.4905 28.9675C37.7983 29.1676 38.0321 29.4442 38.1916 29.7972C38.3512 30.1502 38.4321 30.5595 38.4321 31.0204C38.4321 31.4814 38.3512 31.8906 38.1916 32.2436C38.0321 32.5966 37.7983 32.8732 37.4905 33.0733C37.1826 33.2734 36.8028 33.3724 36.351 33.3724ZM36.351 32.9294C36.7039 32.9294 36.9983 32.8485 37.2365 32.6888C37.4725 32.5269 37.65 32.3043 37.7669 32.0165C37.886 31.7287 37.9444 31.3982 37.9444 31.0204C37.9444 30.6427 37.886 30.3121 37.7669 30.0266C37.6478 29.741 37.4725 29.5161 37.2365 29.3543C37.0005 29.1924 36.7061 29.1114 36.351 29.1092C35.9982 29.1092 35.7038 29.1901 35.4701 29.3498C35.2363 29.5117 35.0611 29.7343 34.9419 30.0221C34.8228 30.3099 34.7644 30.6404 34.7622 31.0182C34.7622 31.3937 34.8183 31.7264 34.9374 32.012C35.0543 32.2976 35.2319 32.5202 35.4678 32.6843C35.7038 32.8485 35.9982 32.9294 36.351 32.9294Z" fill="white"/>
<path d="M40.9401 33.278V28.7607H41.4031L43.8887 32.4618V28.7607H44.3516V33.278H43.8887L41.4031 29.5725V33.278H40.9401Z" fill="white"/>
<path d="M47.1136 33.278V28.7607H49.707V29.2217H47.5743V30.7912H49.3295V31.2499H47.5743V33.2803H47.1136V33.278Z" fill="white"/>
<path d="M52.1522 33.278V28.7607H54.9726V29.2037H52.6129V30.7664H54.5973V31.2094H52.6129V32.8373H54.9726V33.2803H52.1522V33.278Z" fill="white"/>
<path d="M57.6066 33.278V28.7607H59.3505C59.3955 28.7607 59.4449 28.7607 59.4988 28.7652C59.5528 28.7697 59.609 28.7742 59.6674 28.7855C59.9034 28.8215 60.1034 28.9024 60.2674 29.0306C60.4315 29.1587 60.5551 29.3206 60.6405 29.5162C60.7259 29.7096 60.7664 29.9255 60.7664 30.1616C60.7664 30.5033 60.6765 30.7979 60.4967 31.0497C60.3169 31.3016 60.0607 31.459 59.7258 31.5242L59.5663 31.5624H58.0673V33.278H57.6066ZM58.0673 31.1239H59.337C59.3752 31.1239 59.4179 31.1239 59.4696 31.1172C59.5213 31.1104 59.5685 31.1059 59.618 31.0947C59.773 31.061 59.8989 30.998 60 30.9036C60.0989 30.8091 60.1731 30.6967 60.2225 30.5686C60.2719 30.4381 60.2967 30.3032 60.2967 30.1638C60.2967 30.0244 60.2719 29.8895 60.2225 29.7568C60.1731 29.6264 60.0989 29.514 60 29.4196C59.9011 29.3251 59.773 29.2622 59.618 29.2284C59.5708 29.2172 59.5213 29.2104 59.4696 29.2082C59.4202 29.2059 59.3752 29.2037 59.337 29.2037H58.0673V31.1239ZM60.3416 33.278L59.4517 31.441L59.8944 31.2723L60.872 33.2803H60.3416V33.278Z" fill="white"/>
<path d="M63.443 33.278V28.7607H66.2634V29.2037H63.9037V30.7664H65.8881V31.2094H63.9037V32.8373H66.2634V33.2803H63.443V33.278Z" fill="white"/>
<path d="M68.8974 33.278V28.7607H69.3604L71.8459 32.4618V28.7607H72.3089V33.278H71.8459L69.3604 29.5725V33.278H68.8974Z" fill="white"/>
<path d="M76.8979 33.3724C76.4484 33.3724 76.0686 33.2734 75.7607 33.0733C75.4506 32.8732 75.2169 32.5966 75.0596 32.2436C74.9 31.8906 74.8214 31.4814 74.8214 31.0204C74.8214 30.5595 74.9 30.1502 75.0596 29.7972C75.2191 29.4442 75.4529 29.1676 75.7607 28.9675C76.0709 28.7674 76.4484 28.6685 76.8979 28.6685C77.4238 28.6685 77.8508 28.8034 78.1834 29.0709C78.516 29.3385 78.743 29.7005 78.8666 30.1525L78.3969 30.2739C78.3003 29.9164 78.1272 29.6331 77.88 29.424C77.6328 29.2148 77.3047 29.1092 76.8979 29.1092C76.5451 29.1092 76.2507 29.1901 76.0169 29.3498C75.7832 29.5117 75.6079 29.7343 75.4888 30.0221C75.3697 30.3099 75.309 30.6404 75.3045 31.0182C75.3045 31.3937 75.3607 31.7264 75.4776 32.012C75.5944 32.2976 75.7742 32.5224 76.0102 32.6843C76.2462 32.8462 76.5428 32.9272 76.8957 32.9272C77.3002 32.9272 77.6283 32.8215 77.8778 32.6124C78.1272 32.401 78.3003 32.1199 78.3947 31.7647L78.8644 31.8861C78.7408 32.338 78.5138 32.6978 78.1812 32.9676C77.8485 33.2374 77.4215 33.3701 76.8957 33.3701L76.8979 33.3724Z" fill="white"/>
<path d="M81.4376 33.278V28.7607H84.2602V29.2037H81.8983V30.7664H83.8827V31.2094H81.8983V32.8373H84.2602V33.2803H81.4376V33.278Z" fill="white"/>
<path d="M91.8564 33.3724C91.4069 33.3724 91.0271 33.2734 90.7192 33.0733C90.4091 32.8732 90.1754 32.5966 90.0181 32.2436C89.8585 31.8906 89.7798 31.4814 89.7798 31.0204C89.7798 30.5595 89.8585 30.1502 90.0181 29.7972C90.1776 29.4442 90.4114 29.1676 90.7192 28.9675C91.0294 28.7674 91.4069 28.6685 91.8564 28.6685C92.3823 28.6685 92.8093 28.8034 93.1419 29.0709C93.4745 29.3385 93.7015 29.7005 93.8251 30.1525L93.3554 30.2739C93.2588 29.9164 93.0857 29.6331 92.8385 29.424C92.5913 29.2148 92.2632 29.1092 91.8564 29.1092C91.5036 29.1092 91.2092 29.1901 90.9754 29.3498C90.7417 29.5117 90.5664 29.7343 90.4473 30.0221C90.3282 30.3099 90.2675 30.6404 90.263 31.0182C90.263 31.3937 90.3192 31.7264 90.4361 32.012C90.5529 32.2976 90.7327 32.5224 90.9687 32.6843C91.2047 32.8462 91.5013 32.9272 91.8542 32.9272C92.2587 32.9272 92.5868 32.8215 92.8363 32.6124C93.0857 32.401 93.2588 32.1199 93.3532 31.7647L93.8228 31.8861C93.6992 32.338 93.4723 32.6978 93.1397 32.9676C92.807 33.2374 92.38 33.3701 91.8542 33.3701L91.8564 33.3724Z" fill="white"/>
<path d="M96.396 33.278V28.7607H99.2187V29.2037H96.8567V30.7664H98.8411V31.2094H96.8567V32.8373H99.2187V33.2803H96.396V33.278Z" fill="white"/>
<path d="M101.853 33.278V28.7607H102.316L104.801 32.4618V28.7607H105.264V33.278H104.801L102.316 29.5725V33.278H101.853Z" fill="white"/>
<path d="M109.226 33.278V29.2037H107.649V28.7607H111.262V29.2037H109.685V33.278H109.224H109.226Z" fill="white"/>
<path d="M113.647 33.278V28.7607H116.467V29.2037H114.107V30.7664H116.092V31.2094H114.107V32.8373H116.467V33.2803H113.647V33.278Z" fill="white"/>
<path d="M119.101 33.278V28.7607H120.845C120.89 28.7607 120.939 28.7607 120.993 28.7652C121.047 28.7697 121.104 28.7742 121.162 28.7855C121.398 28.8215 121.598 28.9024 121.762 29.0306C121.926 29.1587 122.05 29.3206 122.135 29.5162C122.22 29.7096 122.261 29.9255 122.261 30.1616C122.261 30.5033 122.171 30.7979 121.991 31.0497C121.811 31.3016 121.555 31.459 121.22 31.5242L121.061 31.5624H119.562V33.278H119.101ZM119.562 31.1239H120.832C120.87 31.1239 120.913 31.1239 120.964 31.1172C121.016 31.1104 121.063 31.1059 121.113 31.0947C121.268 31.061 121.393 30.998 121.495 30.9036C121.593 30.8091 121.668 30.6967 121.717 30.5686C121.766 30.4381 121.791 30.3032 121.791 30.1638C121.791 30.0244 121.766 29.8895 121.717 29.7568C121.668 29.6264 121.593 29.514 121.495 29.4196C121.396 29.3251 121.268 29.2622 121.113 29.2284C121.065 29.2172 121.016 29.2104 120.964 29.2082C120.915 29.2059 120.87 29.2037 120.832 29.2037H119.562V31.1239ZM121.836 33.278L120.946 31.441L121.389 31.2723L122.367 33.2803H121.836V33.278Z" fill="white"/>
</g>
<g opacity="0.98">
<path d="M74.6911 12.6907C73.4662 12.3624 72.1426 12.3466 70.8368 12.7064C69.6075 13.0437 68.5355 13.6778 67.677 14.5075C67.5984 14.5839 67.8321 16.0005 67.8815 15.9128C68.1153 15.4878 68.2591 14.8785 68.6232 14.5524C69.0861 14.1365 69.6592 13.8149 70.3469 13.626C71.4189 13.3315 72.4841 13.4327 73.4752 13.8104C74.0034 14.0105 74.4304 14.7323 74.9248 15.5193L74.6888 12.6952L74.6911 12.6907Z" fill="white"/>
<path d="M68.0142 15.5755L67.1557 17.7476C66.5444 19.2856 66.7264 20.0995 68.3984 20.0995H68.7378V20.6639H63.3351V20.0995H63.9015C64.8049 20.0995 65.4162 19.4879 65.8904 18.312L71.2031 5.05693C71.3155 4.76238 71.4976 4.60498 71.6773 4.60498C71.8571 4.60498 72.0616 4.76238 72.1965 5.07942L77.6913 18.312C78.188 19.4879 79.0262 20.0995 80.0195 20.0995H80.3364V20.6639H73.7562V20.0995H74.1405C75.5653 20.0995 75.9496 19.398 75.4754 18.177L73.6438 13.5631L71.2031 7.38865L68.8075 13.5181L68.0164 15.5755H68.0142Z" fill="white"/>
</g>
<g opacity="0.98">
<path d="M113.732 12.6907C112.507 12.3624 111.184 12.3466 109.878 12.7064C108.649 13.0437 107.577 13.6778 106.718 14.5075C106.639 14.5839 106.873 16.0005 106.923 15.9128C107.156 15.4878 107.3 14.8785 107.664 14.5524C108.127 14.1365 108.7 13.8149 109.388 13.626C110.46 13.3315 111.525 13.4327 112.516 13.8104C113.044 14.0105 113.471 14.7323 113.966 15.5193L113.73 12.6952L113.732 12.6907Z" fill="white"/>
<path d="M107.055 15.5755L106.197 17.7476C105.585 19.2856 105.767 20.0995 107.44 20.0995H107.779V20.6639H102.376V20.0995H102.943C103.846 20.0995 104.457 19.4879 104.931 18.312L110.244 5.05693C110.357 4.76238 110.539 4.60498 110.718 4.60498C110.898 4.60498 111.103 4.76238 111.238 5.07942L116.732 18.312C117.229 19.4879 118.067 20.0995 119.061 20.0995H119.378V20.6639H112.797V20.0995H113.182C114.606 20.0995 114.991 19.398 114.516 18.177L112.685 13.5631L110.244 7.38865L107.849 13.5181L107.057 15.5755H107.055Z" fill="white"/>
</g>
<g opacity="0.98">
<path d="M4.67664 5.39885V4.83447H11.2569V5.39885H10.8726C9.44778 5.39885 9.04101 6.10039 9.53992 7.32134L13.6773 17.4104L17.5428 7.7508C18.1541 6.21282 17.972 5.39885 16.3 5.39885H15.9606V4.83447H21.3633V5.39885H20.797C19.8935 5.39885 19.2822 6.01045 18.808 7.18643L13.2458 20.6686H12.884L7.32178 7.18643C6.84759 6.01045 5.98685 5.39885 4.99351 5.39885H4.67664Z" fill="white"/>
</g>
<g opacity="0.98">
<path d="M39.5444 18.3142V7.1615C39.5444 5.98552 39.1152 5.39641 38.2095 5.39641H37.3286V4.83203H43.7493V5.39641H42.8458C41.9649 5.39641 41.5334 5.98552 41.5334 7.1615V18.3142C41.5334 19.4677 41.9626 20.0568 42.8458 20.0568H43.7268C46.4843 20.0568 47.5248 19.5823 48.3159 17.9971L48.4957 17.6351H49.062L48.2485 20.6661H37.3286V20.1017H38.2095C39.113 20.1017 39.5444 19.4901 39.5444 18.3142Z" fill="white"/>
</g>
<g opacity="0.98">
<path d="M58.0312 13.7903V13.2259H64.2025V13.7903H63.7732C62.8923 13.7903 62.463 14.4019 62.463 15.5778V19.0608C60.6314 20.5538 58.5526 20.9608 56.9682 20.9608C52.1072 20.9608 48.489 17.2507 48.489 12.7492C48.489 8.24766 52.1746 4.5376 56.6289 4.5376C58.1211 4.5376 59.0942 4.94458 59.6359 4.94458C60.0426 4.94458 60.0426 4.87712 60.337 4.58257H60.6764L61.672 8.24766H61.1056L60.9258 7.88564C59.9752 5.98564 58.0762 5.37405 56.3817 5.37405C52.4937 5.37405 50.6621 8.63215 50.6621 11.7306C50.6621 15.4856 53.3073 20.1221 57.6267 20.1221C58.7796 20.1221 59.7527 19.7826 60.4764 19.1485V15.5733C60.4764 14.3974 59.91 13.7858 58.6897 13.7858H58.0335L58.0312 13.7903Z" fill="white"/>
</g>
<g opacity="0.98">
<path d="M89.2876 18.3366C89.2876 19.5126 89.7168 20.1017 90.6 20.1017H91.5035V20.6661H85.0828V20.1017H85.9637C86.8672 20.1017 87.2987 19.5126 87.2987 18.3366V7.18398C87.2987 6.00801 86.8694 5.39641 85.9637 5.39641H85.0828V4.83203H91.5035V5.39641H90.6C89.7191 5.39641 89.2876 6.00801 89.2876 7.18398V12.2499H97.5174V7.18398C97.5174 6.00801 97.0882 5.39641 96.1825 5.39641H95.3015V4.83203H101.722V5.39641H100.817C99.9356 5.39641 99.5063 6.00801 99.5063 7.18398V18.3366C99.5063 19.5126 99.9356 20.1017 100.817 20.1017H101.722V20.6661H95.3015V20.1017H96.1825C97.0882 20.1017 97.5174 19.5126 97.5174 18.3366V13.2235H89.2876V18.3366Z" fill="white"/>
</g>
<g opacity="0.98">
<path d="M122.081 18.3142V7.1615C122.081 5.98552 121.652 5.39641 120.746 5.39641H119.865V4.83203H126.286V5.39641H125.38C124.499 5.39641 124.07 5.98552 124.07 7.1615V18.3142C124.07 19.4677 124.499 20.0568 125.38 20.0568H126.261C129.019 20.0568 130.059 19.5823 130.85 17.9971L131.03 17.6351H131.596L130.783 20.6661H119.863V20.1017H120.744C121.65 20.1017 122.079 19.4901 122.079 18.3142H122.081Z" fill="white"/>
</g>
<g opacity="0.98">
<path d="M134.81 18.3142V7.1615C134.81 5.98552 134.381 5.39641 133.475 5.39641H132.594V4.83203H139.015V5.39641H138.112C137.231 5.39641 136.801 5.98552 136.801 7.1615V18.3142C136.801 19.4677 137.231 20.0568 138.112 20.0568H138.992C141.75 20.0568 142.791 19.5823 143.582 17.9971L143.761 17.6351H144.328L143.514 20.6661H132.594V20.1017H133.475C134.379 20.1017 134.81 19.4901 134.81 18.3142Z" fill="white"/>
</g>
<path d="M28.4269 4.56006C32.7936 4.56006 36.351 8.11431 36.351 12.4771C36.351 16.84 32.7936 20.3942 28.4269 20.3942C24.0602 20.3942 20.5027 16.8167 20.5027 12.4771C20.5027 8.13758 24.0602 4.56006 28.4269 4.56006ZM29.1692 19.5856C32.4879 19.5856 34.255 16.4444 34.255 13.4777C34.255 9.85653 31.6146 5.36573 27.6641 5.36573C24.3687 5.36573 22.5988 8.50696 22.5988 11.494C22.5988 15.1152 25.2188 19.5856 29.1692 19.5856Z" fill="white"/>
</svg>
