<svg width="1204" height="286" viewBox="0 0 1204 286" fill="none" xmlns="http://www.w3.org/2000/svg">
<path d="M609.206 218.644C597.861 218.644 588.329 216.598 580.61 212.507C572.985 208.415 567.266 202.975 563.453 196.186C559.64 189.398 557.734 182.004 557.734 174.007C557.734 165.823 559.361 158.849 562.616 153.083C565.964 147.225 570.474 142.435 576.146 138.716C581.912 134.996 588.561 132.16 596.094 130.207C603.719 128.347 612.135 126.719 621.342 125.324C630.641 123.837 639.708 122.581 648.542 121.558C657.47 120.442 665.281 119.373 671.977 118.35L664.724 122.814C665.002 107.935 662.12 96.9147 656.075 89.7542C650.03 82.5936 639.522 79.0133 624.55 79.0133C614.228 79.0133 605.486 81.3382 598.326 85.9879C591.258 90.6376 586.283 97.9842 583.4 108.028L563.453 102.169C566.894 88.6847 573.822 78.2229 584.237 70.7833C594.652 63.3438 608.183 59.624 624.829 59.624C638.592 59.624 650.263 62.2279 659.841 67.4355C669.513 72.5502 676.348 79.9898 680.347 89.7542C682.206 94.1249 683.415 99.0071 683.973 104.401C684.531 109.794 684.81 115.281 684.81 120.861V214.459H666.537V176.657L671.838 178.889C666.723 191.815 658.772 201.673 647.985 208.461C637.197 215.25 624.271 218.644 609.206 218.644ZM611.577 200.929C621.156 200.929 629.525 199.208 636.686 195.768C643.846 192.327 649.612 187.631 653.983 181.679C658.353 175.634 661.19 168.846 662.492 161.313C663.608 156.478 664.212 151.177 664.305 145.411C664.398 139.553 664.445 135.182 664.445 132.299L672.256 136.344C665.281 137.274 657.702 138.204 649.519 139.134C641.428 140.064 633.431 141.133 625.526 142.342C617.715 143.551 610.647 144.993 604.324 146.667C600.046 147.876 595.908 149.596 591.909 151.828C587.91 153.967 584.609 156.85 582.005 160.476C579.494 164.103 578.239 168.613 578.239 174.007C578.239 178.378 579.308 182.609 581.447 186.701C583.679 190.792 587.213 194.187 592.048 196.884C596.977 199.58 603.487 200.929 611.577 200.929Z" fill="white"/>
<path d="M460.844 285.6C453.125 285.6 445.5 284.438 437.967 282.113C430.528 279.881 423.646 276.301 417.323 271.372C410.999 266.536 405.698 260.213 401.421 252.401L419.973 242.079C424.158 250.448 430.016 256.446 437.549 260.073C445.174 263.793 452.939 265.653 460.844 265.653C471.724 265.653 480.512 263.607 487.208 259.515C493.996 255.516 498.925 249.565 501.994 241.66C505.063 233.756 506.551 223.898 506.458 212.088V171.915H508.829V63.8088H527.102V212.367C527.102 216.645 526.963 220.737 526.684 224.642C526.498 228.641 526.079 232.547 525.428 236.36C523.662 247.612 519.988 256.865 514.409 264.118C508.922 271.372 501.668 276.766 492.648 280.299C483.72 283.833 473.119 285.6 460.844 285.6ZM459.449 218.644C445.407 218.644 433.411 215.157 423.46 208.182C413.51 201.115 405.884 191.583 400.584 179.587C395.283 167.59 392.633 154.06 392.633 138.995C392.633 124.023 395.236 110.538 400.444 98.5421C405.745 86.5459 413.324 77.0604 423.181 70.0859C433.039 63.1113 444.849 59.624 458.612 59.624C472.747 59.624 484.65 63.0648 494.322 69.9464C503.993 76.828 511.293 86.2669 516.222 98.2631C521.244 110.166 523.755 123.744 523.755 138.995C523.755 153.967 521.29 167.497 516.361 179.587C511.433 191.583 504.179 201.115 494.601 208.182C485.022 215.157 473.305 218.644 459.449 218.644ZM461.541 199.534C472.236 199.534 481.07 196.93 488.045 191.722C495.019 186.515 500.227 179.354 503.668 170.241C507.109 161.034 508.829 150.619 508.829 138.995C508.829 127.184 507.109 116.769 503.668 107.749C500.227 98.6351 495.019 91.521 488.045 86.4064C481.163 81.2917 472.468 78.7343 461.96 78.7343C451.172 78.7343 442.245 81.3847 435.177 86.6853C428.11 91.986 422.856 99.1931 419.415 108.307C416.067 117.42 414.393 127.649 414.393 138.995C414.393 150.433 416.114 160.755 419.554 169.962C423.088 179.075 428.342 186.282 435.317 191.583C442.292 196.884 451.033 199.534 461.541 199.534Z" fill="white"/>
<path d="M338.679 214.46V9.40723H359.184V214.46H338.679Z" fill="white"/>
<path d="M233.697 218.644C218.725 218.644 205.938 215.25 195.337 208.461C184.736 201.673 176.599 192.28 170.926 180.284C165.253 168.288 162.417 154.525 162.417 138.995C162.417 123.186 165.3 109.329 171.066 97.4262C176.831 85.5229 185.015 76.27 195.616 69.6674C206.31 62.9718 219.004 59.624 233.697 59.624C248.762 59.624 261.595 63.0183 272.197 69.8069C282.891 76.5025 291.028 85.8484 296.608 97.8447C302.28 109.748 305.117 123.465 305.117 138.995C305.117 154.804 302.28 168.706 296.608 180.703C290.935 192.606 282.752 201.905 272.057 208.601C261.363 215.296 248.576 218.644 233.697 218.644ZM233.697 198.976C250.436 198.976 262.897 193.443 271.081 182.376C279.264 171.217 283.356 156.757 283.356 138.995C283.356 120.768 279.218 106.261 270.941 95.4733C262.758 84.686 250.343 79.2923 233.697 79.2923C222.445 79.2923 213.145 81.8496 205.799 86.9643C198.545 91.986 193.105 99.0071 189.478 108.028C185.945 116.955 184.178 127.277 184.178 138.995C184.178 157.129 188.362 171.682 196.732 182.655C205.101 193.536 217.423 198.976 233.697 198.976Z" fill="white"/>
<path d="M70.0896 214.46L0.901794 13.592H22.244L83.4807 191.165L145.136 13.592H166.478L97.2904 214.46H70.0896Z" fill="white"/>
<path d="M1203.33 0L1164.94 179.852C1160.7 199.616 1162.39 206.392 1170.02 206.392C1172.56 206.392 1175.66 205.263 1179.05 202.722L1179.62 209.498C1172.84 213.733 1168.32 215.145 1161.55 215.145C1150.82 215.145 1138.11 205.263 1144.04 177.311L1176.23 25.4108C1178.49 14.9641 1173.12 11.0113 1162.39 11.0113H1156.47L1157.88 4.79982C1181.88 4.51748 1190.35 3.38811 1197.4 0.564694L1203.33 0Z" fill="white"/>
<path d="M1142.4 0L1104 179.852C1099.77 199.616 1101.46 206.392 1109.08 206.392C1111.62 206.392 1114.73 205.263 1118.12 202.722L1118.68 209.498C1111.91 213.733 1107.39 215.145 1100.61 215.145C1089.88 215.145 1077.18 205.263 1083.11 177.311L1115.29 25.4108C1117.55 14.9641 1112.19 11.0113 1101.46 11.0113H1095.53L1096.94 4.79982C1120.94 4.51748 1129.41 3.38811 1136.47 0.564694L1142.4 0Z" fill="white"/>
<path d="M1028.95 188.04C1015.4 208.368 1001.29 215.992 988.015 215.992C963.169 215.992 943.97 186.628 950.181 148.512C955.828 112.372 980.392 81.0322 1010.04 81.0322C1027.54 81.0322 1041.1 91.7612 1047.59 107.855L1063.12 82.4439H1068.77L1048.15 179.852C1043.92 199.616 1045.61 206.392 1053.24 206.392C1055.78 206.392 1058.88 205.263 1062.27 202.722L1062.84 209.498C1056.06 213.733 1051.54 215.145 1044.77 215.145C1034.04 215.145 1027.54 206.392 1028.95 188.04ZM1032.06 153.876C1036.58 131.571 1037.71 90.6319 1011.45 90.6319C988.58 90.6319 977.286 121.689 973.616 144.559C969.381 170.252 971.922 206.674 995.356 206.674C1011.73 206.674 1024.72 188.605 1032.06 153.876Z" fill="white"/>
<path d="M790.588 121.69L777.035 185.499C773.93 200.181 777.6 207.522 788.611 207.522H799.905L798.493 214.58H718.308L719.72 207.522H730.731C742.025 207.522 749.083 200.181 752.189 185.499L781.835 46.3043C784.941 31.6225 780.988 23.9992 769.694 23.9992H758.683L760.377 16.9407H840.562L838.868 23.9992H827.574C816.563 23.9992 809.787 31.6225 806.681 46.3043L793.129 109.549H895.901L909.454 46.3043C912.559 31.6225 908.607 23.9992 897.313 23.9992H886.302L887.996 16.9407H968.181L966.487 23.9992H955.193C944.182 23.9992 937.406 31.6225 934.3 46.3043L904.654 185.499C901.548 200.181 905.219 207.522 916.23 207.522H927.524L926.112 214.58H845.927L847.338 207.522H858.35C869.643 207.522 876.702 200.181 879.808 185.499L893.36 121.69H790.588Z" fill="white"/>
</svg>
