<svg width="19" height="21" viewBox="0 0 19 21" fill="none" xmlns="http://www.w3.org/2000/svg">
<path d="M14.6285 0.491322C11.1982 -0.163774 7.63586 -0.163774 4.2055 0.491322C2.68822 0.818871 0.775131 2.65314 0.445288 4.09435C-0.148429 6.91127 -0.148429 9.79369 0.445288 12.6106C0.8411 14.0518 2.75419 15.8861 4.2055 16.2136C4.27146 16.2136 4.33743 16.2791 4.33743 16.3447V20.4718C4.33743 20.6683 4.60131 20.7993 4.73325 20.6028L6.71231 18.572C6.71231 18.572 8.29555 16.9342 8.55942 16.6722C8.55942 16.6722 8.62539 16.6067 8.69136 16.6067C10.6704 16.6722 12.7154 16.4757 14.6945 16.1481C16.2118 15.8206 18.1249 13.9863 18.4547 12.5451C19.0484 9.72818 19.0484 6.84576 18.4547 4.02884C18.0589 2.65314 16.1458 0.818871 14.6285 0.491322ZM14.6945 12.8071C14.3647 13.4622 13.9689 13.9863 13.3092 14.3139C13.1113 14.3794 12.9134 14.4449 12.7154 14.5104C12.4516 14.4449 12.2537 14.3794 12.0558 14.3139C9.94476 13.4622 7.96571 12.2831 6.38246 10.5798C5.52487 9.59716 4.79921 8.4835 4.2055 7.30433C3.94162 6.71474 3.67775 6.19066 3.47984 5.60107C3.28194 5.077 3.61178 4.55292 3.94162 4.15986C4.27146 3.7668 4.66728 3.50477 5.12906 3.30824C5.4589 3.11171 5.78874 3.24273 6.05262 3.50477C6.58037 4.15986 7.10811 4.81496 7.50393 5.53556C7.7678 5.99413 7.70183 6.51821 7.24005 6.84576C7.10811 6.91127 7.04214 6.97678 6.91021 7.1078C6.84424 7.17331 6.7123 7.23881 6.64633 7.36983C6.5144 7.56636 6.5144 7.76289 6.58036 7.95942C7.10811 9.46614 8.09764 10.6453 9.61492 11.3004C9.87879 11.4314 10.0767 11.4969 10.4065 11.4969C10.8683 11.4314 11.0662 10.9074 11.3961 10.6453C11.7259 10.3833 12.1217 10.3833 12.5175 10.5798C12.8474 10.7763 13.1772 11.0384 13.573 11.3004C13.9029 11.5625 14.2327 11.759 14.5626 12.021C14.7605 12.152 14.8264 12.4796 14.6945 12.8071ZM11.9238 7.89391C11.7919 7.89391 11.8579 7.89391 11.9238 7.89391C11.6599 7.89391 11.594 7.76289 11.528 7.56636C11.528 7.43535 11.528 7.23882 11.462 7.1078C11.3961 6.84576 11.2641 6.58372 11.0003 6.38719C10.8683 6.32168 10.7364 6.25617 10.6044 6.19066C10.4065 6.12515 10.2746 6.12515 10.0767 6.12515C9.8788 6.05964 9.81283 5.92862 9.81283 5.73209C9.81283 5.60107 10.0107 5.47006 10.1427 5.47006C11.1982 5.53557 11.9898 6.12515 12.1217 7.36983C12.1217 7.43534 12.1217 7.56636 12.1217 7.63187C12.1217 7.76289 12.0558 7.89391 11.9238 7.89391ZM11.2641 5.01149C10.9343 4.88047 10.6044 4.74945 10.2086 4.68394C10.0767 4.68394 9.8788 4.61843 9.74686 4.61843C9.54895 4.61843 9.41702 4.48741 9.48298 4.29088C9.48298 4.09435 9.61492 3.96333 9.81283 4.02884C10.4725 4.09435 11.0662 4.22537 11.6599 4.48741C12.8474 5.077 13.5071 6.05964 13.705 7.36983C13.705 7.43534 13.705 7.50086 13.705 7.56636C13.705 7.69738 13.705 7.8284 13.705 8.02493C13.705 8.09044 13.705 8.15595 13.705 8.22146C13.639 8.4835 13.1772 8.54901 13.1113 8.22146C13.1113 8.15595 13.0453 8.02493 13.0453 7.95942C13.0453 7.36983 12.9134 6.78025 12.6495 6.25617C12.2537 5.66658 11.7919 5.27353 11.2641 5.01149ZM14.8264 8.94207C14.6285 8.94207 14.4966 8.74554 14.4966 8.54901C14.4966 8.15595 14.4306 7.76289 14.3647 7.36983C14.1008 5.27353 12.3856 3.57028 10.3406 3.24273C10.0107 3.17722 9.68089 3.17722 9.41702 3.11171C9.21911 3.11171 8.95523 3.11171 8.88927 2.84967C8.8233 2.65314 9.0212 2.45661 9.21911 2.45661C9.28508 2.45661 9.35105 2.45661 9.35105 2.45661C9.48299 2.45661 12.0558 2.52212 9.35105 2.45661C12.1217 2.52212 14.4306 4.35639 14.8924 7.1078C14.9584 7.56636 15.0243 8.02493 15.0243 8.54901C15.1563 8.74554 15.0243 8.94207 14.8264 8.94207Z" fill="#597EF7"/>
</svg>
