<svg width="19" height="19" viewBox="0 0 19 19" fill="none" xmlns="http://www.w3.org/2000/svg">
<path d="M16.1341 2.85635C14.3561 1.08447 11.9854 0.100098 9.48292 0.100098C4.28049 0.100098 0.0658526 4.3001 0.0658526 9.48447C0.0658526 11.1251 0.526829 12.7657 1.31707 14.1438L0 19.0001L5.00488 17.6876C6.38781 18.4095 7.90244 18.8032 9.48292 18.8032C14.6854 18.8032 18.9 14.6032 18.9 9.41885C18.8341 6.99072 17.9122 4.62822 16.1341 2.85635ZM14.0268 12.8313C13.8293 13.3563 12.9073 13.8813 12.4463 13.947C12.0512 14.0126 11.5244 14.0126 10.9976 13.8813C10.6683 13.7501 10.2073 13.6188 9.68049 13.3563C7.30976 12.372 5.79512 10.0095 5.66342 9.8126C5.53171 9.68135 4.67561 8.56572 4.67561 7.38447C4.67561 6.20322 5.26829 5.67822 5.46585 5.41572C5.66341 5.15322 5.92683 5.15322 6.12439 5.15322C6.2561 5.15322 6.45366 5.15322 6.58536 5.15322C6.71707 5.15322 6.91463 5.0876 7.11219 5.54697C7.30976 6.00635 7.77073 7.1876 7.83658 7.25322C7.90244 7.38447 7.90244 7.51572 7.83658 7.64697C7.77073 7.77822 7.70487 7.90947 7.57317 8.04072C7.44146 8.17197 7.30975 8.36885 7.2439 8.43447C7.11219 8.56572 6.98049 8.69697 7.11219 8.89385C7.2439 9.15635 7.70488 9.87822 8.42927 10.5345C9.35122 11.322 10.0756 11.5845 10.339 11.7157C10.6024 11.847 10.7341 11.7813 10.8659 11.6501C10.9976 11.5188 11.4585 10.9938 11.5902 10.7313C11.722 10.4688 11.9195 10.5345 12.1171 10.6001C12.3146 10.6657 13.5 11.2563 13.6976 11.3876C13.961 11.5188 14.0927 11.5845 14.1585 11.6501C14.2244 11.847 14.2244 12.3063 14.0268 12.8313Z" fill="#597EF7"/>
</svg>
