<svg width="48" height="48" viewBox="0 0 48 48" fill="none" xmlns="http://www.w3.org/2000/svg">
<circle cx="24" cy="24" r="24" fill="#F0F5FF"/>
<path d="M33.5122 14.4748C31.1415 12.1123 27.9805 10.7998 24.6439 10.7998C17.7073 10.7998 12.0878 16.3998 12.0878 23.3123C12.0878 25.4998 12.7024 27.6873 13.7561 29.5248L12 35.9998L18.6732 34.2498C20.5171 35.2123 22.5366 35.7373 24.6439 35.7373C31.5805 35.7373 37.2 30.1373 37.2 23.2248C37.1122 19.9873 35.8829 16.8373 33.5122 14.4748ZM30.7024 27.7748C30.439 28.4748 29.2098 29.1748 28.5951 29.2623C28.0683 29.3498 27.3659 29.3498 26.6634 29.1748C26.2244 28.9998 25.6098 28.8248 24.9073 28.4748C21.7463 27.1623 19.7268 24.0123 19.5512 23.7498C19.3756 23.5748 18.2341 22.0873 18.2341 20.5123C18.2341 18.9373 19.0244 18.2373 19.2878 17.8873C19.5512 17.5373 19.9024 17.5373 20.1659 17.5373C20.3415 17.5373 20.6049 17.5373 20.7805 17.5373C20.9561 17.5373 21.2195 17.4498 21.4829 18.0623C21.7463 18.6748 22.361 20.2498 22.4488 20.3373C22.5366 20.5123 22.5366 20.6873 22.4488 20.8623C22.361 21.0373 22.2732 21.2123 22.0976 21.3873C21.9219 21.5623 21.7463 21.8248 21.6585 21.9123C21.4829 22.0873 21.3073 22.2623 21.4829 22.5248C21.6585 22.8748 22.2732 23.8373 23.239 24.7123C24.4683 25.7623 25.4341 26.1123 25.7854 26.2873C26.1366 26.4623 26.3122 26.3748 26.4878 26.1998C26.6634 26.0248 27.278 25.3248 27.4537 24.9748C27.6293 24.6248 27.8927 24.7123 28.1561 24.7998C28.4195 24.8873 30 25.6748 30.2634 25.8498C30.6146 26.0248 30.7902 26.1123 30.878 26.1998C30.9658 26.4623 30.9659 27.0748 30.7024 27.7748Z" fill="#597EF7"/>
</svg>
