<svg width="19" height="12" viewBox="0 0 19 12" fill="none" xmlns="http://www.w3.org/2000/svg">
<path d="M18.8252 10.6038C18.8252 10.5291 18.7504 10.5291 18.7504 10.4544C18.4516 9.85662 17.7791 9.10942 16.8824 8.28749C16.4341 7.91389 16.2099 7.615 16.0605 7.46556C15.8363 7.16668 15.8364 6.94252 15.9111 6.64364C15.9858 6.41948 16.2847 6.04587 16.8077 5.37338C17.1066 4.99978 17.256 4.77562 17.4802 4.55146C18.601 3.05705 19.124 2.08567 18.9746 1.63735L18.8999 1.56264C18.8252 1.48792 18.7504 1.4132 18.601 1.4132C18.4516 1.33848 18.2274 1.33848 18.0032 1.4132H15.1639C15.0891 1.4132 15.0891 1.4132 14.9397 1.4132C14.865 1.4132 14.7903 1.4132 14.7903 1.4132H14.7155H14.6408L14.5661 1.48791C14.4914 1.56263 14.4914 1.56263 14.4914 1.63735C14.1925 2.45928 13.8189 3.13176 13.4453 3.87897C13.2211 4.25257 12.997 4.62618 12.7728 4.92506C12.5486 5.22395 12.3992 5.4481 12.2497 5.59755C12.1003 5.74699 11.9509 5.82171 11.8761 5.97115C11.8014 6.04587 11.652 6.12059 11.652 6.04587C11.5773 6.04587 11.5025 6.04587 11.5025 5.97115C11.4278 5.89643 11.3531 5.82171 11.2784 5.74698C11.2037 5.67226 11.2037 5.52282 11.1289 5.37338C11.1289 5.22394 11.1289 5.0745 11.1289 4.99978C11.1289 4.92506 11.1289 4.7009 11.1289 4.55146C11.1289 4.3273 11.1289 4.17785 11.1289 4.10313C11.1289 3.87897 11.1289 3.5801 11.1289 3.28121C11.1289 2.98233 11.1289 2.75816 11.1289 2.60872C11.1289 2.45928 11.1289 2.23512 11.1289 2.08568C11.1289 1.86152 11.1289 1.71207 11.1289 1.63735C11.1289 1.56263 11.0542 1.41319 11.0542 1.33847C10.9795 1.26375 10.9048 1.18903 10.8301 1.11431C10.7553 1.03959 10.6059 1.03959 10.5312 0.964869C10.1576 0.890148 9.70926 0.81543 9.18621 0.81543C7.99068 0.81543 7.16875 0.890153 6.86987 1.03959C6.72043 1.11431 6.57099 1.18903 6.49627 1.33847C6.34683 1.48791 6.34682 1.56264 6.42154 1.56264C6.79515 1.63736 7.09403 1.78679 7.24347 2.01095L7.3182 2.1604C7.39292 2.23512 7.39291 2.38456 7.46763 2.60872C7.54235 2.83288 7.54235 3.05704 7.54235 3.35593C7.54235 3.80425 7.54235 4.25258 7.54235 4.55146C7.54235 4.92506 7.46763 5.14922 7.46763 5.37338C7.46763 5.59754 7.39292 5.74699 7.3182 5.82171C7.24348 5.97115 7.24347 6.04587 7.16875 6.04587C7.16875 6.04587 7.16874 6.12059 7.09402 6.12059C7.0193 6.12059 6.94459 6.19531 6.79515 6.19531C6.72042 6.19531 6.57099 6.12059 6.49627 6.04587C6.34683 5.97115 6.19738 5.82171 6.12266 5.67227C5.97322 5.52283 5.82378 5.29866 5.67434 4.99978C5.52489 4.7009 5.30072 4.40202 5.15128 3.95369L5.00185 3.65482C4.92713 3.50537 4.77769 3.20649 4.62825 2.83288C4.47881 2.45928 4.32936 2.1604 4.17992 1.7868C4.1052 1.63736 4.03049 1.56263 3.95577 1.48791H3.88104C3.88104 1.48791 3.80631 1.4132 3.73159 1.4132C3.65687 1.4132 3.58216 1.33847 3.50744 1.33847H0.817494C0.518611 1.33847 0.369172 1.41319 0.294452 1.48791L0.219727 1.56264C0.219727 1.56264 0.219727 1.63735 0.219727 1.71207C0.219727 1.7868 0.219731 1.86151 0.294452 2.01095C0.668055 2.9076 1.11638 3.80425 1.5647 4.7009C2.01302 5.52283 2.46135 6.27004 2.76024 6.79308C3.13384 7.31612 3.43272 7.83917 3.80632 8.28749C4.17992 8.73582 4.40408 9.0347 4.4788 9.18414C4.62824 9.33358 4.70296 9.4083 4.77768 9.48302L5.00185 9.70718C5.1513 9.85662 5.37545 10.0808 5.67434 10.3049C5.97322 10.5291 6.34682 10.7533 6.72042 10.9774C7.09402 11.2016 7.54236 11.351 7.99068 11.5005C8.51372 11.6499 8.96204 11.7246 9.41037 11.6499H10.5312C10.7553 11.6499 10.9048 11.5752 11.0542 11.4258L11.1289 11.351C11.1289 11.2763 11.2037 11.2763 11.2037 11.2016C11.2037 11.1269 11.2037 11.0522 11.2037 10.9027C11.2037 10.6038 11.2037 10.3797 11.2784 10.1555C11.3531 9.93135 11.3531 9.78191 11.4278 9.63247C11.5026 9.48303 11.5773 9.4083 11.652 9.33358C11.7267 9.25886 11.8014 9.18414 11.8014 9.18414H11.8761C12.0256 9.10942 12.2498 9.18414 12.3992 9.33358C12.6234 9.48302 12.8475 9.70718 12.9969 9.93134C13.1464 10.1555 13.3706 10.3797 13.6695 10.6786C13.9683 10.9774 14.1925 11.2016 14.3419 11.2763L14.5661 11.4258C14.7155 11.5005 14.865 11.5752 15.0891 11.6499C15.3133 11.7246 15.4627 11.7246 15.6122 11.7246L18.1527 11.6499C18.3769 11.6499 18.601 11.5752 18.7504 11.5005C18.8999 11.4258 18.9746 11.351 18.9746 11.2016C18.9746 11.1269 18.9746 10.9774 18.9746 10.9027C18.8252 10.7533 18.8252 10.6785 18.8252 10.6038Z" fill="#597EF7"/>
</svg>
