<svg width="36" height="36" viewBox="0 0 36 36" fill="none" xmlns="http://www.w3.org/2000/svg">
<circle cx="18" cy="18" r="18" fill="#F0F5FF"/>
<path d="M26.8257 22.6038C26.8257 22.5291 26.7509 22.5291 26.7509 22.4544C26.4521 21.8566 25.7796 21.1094 24.8829 20.2875C24.4346 19.9139 24.2104 19.615 24.061 19.4656C23.8368 19.1667 23.8368 18.9425 23.9116 18.6436C23.9863 18.4195 24.2852 18.0459 24.8082 17.3734C25.1071 16.9998 25.2565 16.7756 25.4807 16.5515C26.6015 15.057 27.1245 14.0857 26.9751 13.6373L26.9004 13.5626C26.8257 13.4879 26.7509 13.4132 26.6015 13.4132C26.452 13.3385 26.2279 13.3385 26.0037 13.4132H23.1644C23.0896 13.4132 23.0896 13.4132 22.9402 13.4132C22.8655 13.4132 22.7908 13.4132 22.7908 13.4132H22.716H22.6413L22.5666 13.4879C22.4919 13.5626 22.4918 13.5626 22.4918 13.6373C22.193 14.4593 21.8194 15.1318 21.4458 15.879C21.2216 16.2526 20.9974 16.6262 20.7733 16.9251C20.5491 17.2239 20.3997 17.4481 20.2502 17.5975C20.1008 17.747 19.9513 17.8217 19.8766 17.9711C19.8019 18.0459 19.6525 18.1206 19.6525 18.0459C19.5778 18.0459 19.503 18.0459 19.503 17.9711C19.4283 17.8964 19.3536 17.8217 19.2789 17.747C19.2042 17.6723 19.2041 17.5228 19.1294 17.3734C19.1294 17.2239 19.1294 17.0745 19.1294 16.9998C19.1294 16.9251 19.1294 16.7009 19.1294 16.5515C19.1294 16.3273 19.1294 16.1779 19.1294 16.1031C19.1294 15.879 19.1294 15.5801 19.1294 15.2812C19.1294 14.9823 19.1294 14.7582 19.1294 14.6087C19.1294 14.4593 19.1294 14.2351 19.1294 14.0857C19.1294 13.8615 19.1294 13.7121 19.1294 13.6373C19.1294 13.5626 19.0547 13.4132 19.0547 13.3385C18.98 13.2638 18.9053 13.189 18.8305 13.1143C18.7558 13.0396 18.6064 13.0396 18.5317 12.9649C18.1581 12.8901 17.7097 12.8154 17.1867 12.8154C15.9912 12.8154 15.1692 12.8902 14.8704 13.0396C14.7209 13.1143 14.5715 13.189 14.4968 13.3385C14.3473 13.4879 14.3473 13.5626 14.422 13.5626C14.7956 13.6374 15.0945 13.7868 15.244 14.011L15.3187 14.1604C15.3934 14.2351 15.3934 14.3846 15.4681 14.6087C15.5428 14.8329 15.5428 15.057 15.5428 15.3559C15.5428 15.8043 15.5428 16.2526 15.5428 16.5515C15.5428 16.9251 15.4681 17.1492 15.4681 17.3734C15.4681 17.5975 15.3934 17.747 15.3187 17.8217C15.244 17.9712 15.244 18.0459 15.1692 18.0459C15.1692 18.0459 15.1692 18.1206 15.0945 18.1206C15.0198 18.1206 14.9451 18.1953 14.7956 18.1953C14.7209 18.1953 14.5715 18.1206 14.4968 18.0459C14.3473 17.9712 14.1979 17.8217 14.1232 17.6723C13.9737 17.5228 13.8243 17.2987 13.6748 16.9998C13.5254 16.7009 13.3012 16.402 13.1518 15.9537L13.0023 15.6548C12.9276 15.5054 12.7782 15.2065 12.6287 14.8329C12.4793 14.4593 12.3299 14.1604 12.1804 13.7868C12.1057 13.6374 12.031 13.5626 11.9563 13.4879H11.8815C11.8815 13.4879 11.8068 13.4132 11.7321 13.4132C11.6574 13.4132 11.5827 13.3385 11.5079 13.3385H8.81798C8.5191 13.3385 8.36966 13.4132 8.29494 13.4879L8.22021 13.5626C8.22021 13.5626 8.22021 13.6374 8.22021 13.7121C8.22021 13.7868 8.22022 13.8615 8.29494 14.011C8.66854 14.9076 9.11686 15.8043 9.56519 16.7009C10.0135 17.5228 10.4618 18.27 10.7607 18.7931C11.1343 19.3161 11.4332 19.8392 11.8068 20.2875C12.1804 20.7358 12.4046 21.0347 12.4793 21.1841C12.6287 21.3336 12.7034 21.4083 12.7782 21.483L13.0023 21.7072C13.1518 21.8566 13.3759 22.0808 13.6748 22.3049C13.9737 22.5291 14.3473 22.7533 14.7209 22.9774C15.0945 23.2016 15.5428 23.351 15.9912 23.5005C16.5142 23.6499 16.9625 23.7246 17.4109 23.6499H18.5317C18.7558 23.6499 18.9053 23.5752 19.0547 23.4258L19.1294 23.351C19.1294 23.2763 19.2041 23.2763 19.2041 23.2016C19.2041 23.1269 19.2041 23.0522 19.2041 22.9027C19.2041 22.6038 19.2042 22.3797 19.2789 22.1555C19.3536 21.9313 19.3536 21.7819 19.4283 21.6325C19.503 21.483 19.5778 21.4083 19.6525 21.3336C19.7272 21.2589 19.8019 21.1841 19.8019 21.1841H19.8766C20.0261 21.1094 20.2502 21.1841 20.3997 21.3336C20.6238 21.483 20.848 21.7072 20.9974 21.9313C21.1469 22.1555 21.3711 22.3797 21.6699 22.6786C21.9688 22.9774 22.193 23.2016 22.3424 23.2763L22.5666 23.4258C22.716 23.5005 22.8655 23.5752 23.0896 23.6499C23.3138 23.7246 23.4632 23.7246 23.6127 23.7246L26.1532 23.6499C26.3773 23.6499 26.6015 23.5752 26.7509 23.5005C26.9004 23.4258 26.9751 23.351 26.9751 23.2016C26.9751 23.1269 26.9751 22.9774 26.9751 22.9027C26.8256 22.7533 26.8257 22.6785 26.8257 22.6038Z" fill="#222222"/>
</svg>
